%TF.GenerationSoftware,KiCad,Pcbnew,9.0.2*%
%TF.CreationDate,2025-07-16T17:11:34-05:00*%
%TF.ProjectId,guante_primiparos,6775616e-7465-45f7-9072-696d69706172,rev?*%
%TF.SameCoordinates,Original*%
%TF.FileFunction,Legend,Top*%
%TF.FilePolarity,Positive*%
%FSLAX46Y46*%
G04 Gerber Fmt 4.6, Leading zero omitted, Abs format (unit mm)*
G04 Created by KiCad (PCBNEW 9.0.2) date 2025-07-16 17:11:34*
%MOMM*%
%LPD*%
G01*
G04 APERTURE LIST*
%ADD10C,0.150000*%
%ADD11C,0.127000*%
%ADD12C,0.200000*%
%ADD13C,0.120000*%
G04 APERTURE END LIST*
D10*
X93094819Y-124416904D02*
X93904342Y-124416904D01*
X93904342Y-124416904D02*
X93999580Y-124369285D01*
X93999580Y-124369285D02*
X94047200Y-124321666D01*
X94047200Y-124321666D02*
X94094819Y-124226428D01*
X94094819Y-124226428D02*
X94094819Y-124035952D01*
X94094819Y-124035952D02*
X94047200Y-123940714D01*
X94047200Y-123940714D02*
X93999580Y-123893095D01*
X93999580Y-123893095D02*
X93904342Y-123845476D01*
X93904342Y-123845476D02*
X93094819Y-123845476D01*
X94094819Y-122845476D02*
X94094819Y-123416904D01*
X94094819Y-123131190D02*
X93094819Y-123131190D01*
X93094819Y-123131190D02*
X93237676Y-123226428D01*
X93237676Y-123226428D02*
X93332914Y-123321666D01*
X93332914Y-123321666D02*
X93380533Y-123416904D01*
X110534819Y-90633333D02*
X111249104Y-90633333D01*
X111249104Y-90633333D02*
X111391961Y-90680952D01*
X111391961Y-90680952D02*
X111487200Y-90776190D01*
X111487200Y-90776190D02*
X111534819Y-90919047D01*
X111534819Y-90919047D02*
X111534819Y-91014285D01*
X110534819Y-89728571D02*
X110534819Y-89919047D01*
X110534819Y-89919047D02*
X110582438Y-90014285D01*
X110582438Y-90014285D02*
X110630057Y-90061904D01*
X110630057Y-90061904D02*
X110772914Y-90157142D01*
X110772914Y-90157142D02*
X110963390Y-90204761D01*
X110963390Y-90204761D02*
X111344342Y-90204761D01*
X111344342Y-90204761D02*
X111439580Y-90157142D01*
X111439580Y-90157142D02*
X111487200Y-90109523D01*
X111487200Y-90109523D02*
X111534819Y-90014285D01*
X111534819Y-90014285D02*
X111534819Y-89823809D01*
X111534819Y-89823809D02*
X111487200Y-89728571D01*
X111487200Y-89728571D02*
X111439580Y-89680952D01*
X111439580Y-89680952D02*
X111344342Y-89633333D01*
X111344342Y-89633333D02*
X111106247Y-89633333D01*
X111106247Y-89633333D02*
X111011009Y-89680952D01*
X111011009Y-89680952D02*
X110963390Y-89728571D01*
X110963390Y-89728571D02*
X110915771Y-89823809D01*
X110915771Y-89823809D02*
X110915771Y-90014285D01*
X110915771Y-90014285D02*
X110963390Y-90109523D01*
X110963390Y-90109523D02*
X111011009Y-90157142D01*
X111011009Y-90157142D02*
X111106247Y-90204761D01*
X129469065Y-135259925D02*
X130106486Y-135259925D01*
X130106486Y-135259925D02*
X130181476Y-135222430D01*
X130181476Y-135222430D02*
X130218972Y-135184934D01*
X130218972Y-135184934D02*
X130256467Y-135109944D01*
X130256467Y-135109944D02*
X130256467Y-134959962D01*
X130256467Y-134959962D02*
X130218972Y-134884972D01*
X130218972Y-134884972D02*
X130181476Y-134847476D01*
X130181476Y-134847476D02*
X130106486Y-134809981D01*
X130106486Y-134809981D02*
X129469065Y-134809981D01*
X129544056Y-134472523D02*
X129506560Y-134435028D01*
X129506560Y-134435028D02*
X129469065Y-134360037D01*
X129469065Y-134360037D02*
X129469065Y-134172561D01*
X129469065Y-134172561D02*
X129506560Y-134097570D01*
X129506560Y-134097570D02*
X129544056Y-134060075D01*
X129544056Y-134060075D02*
X129619046Y-134022579D01*
X129619046Y-134022579D02*
X129694037Y-134022579D01*
X129694037Y-134022579D02*
X129806523Y-134060075D01*
X129806523Y-134060075D02*
X130256467Y-134510019D01*
X130256467Y-134510019D02*
X130256467Y-134022579D01*
X134768152Y-136168094D02*
X135434819Y-135929999D01*
X134768152Y-135691904D02*
X135434819Y-135929999D01*
X135434819Y-135929999D02*
X135672914Y-136025237D01*
X135672914Y-136025237D02*
X135720533Y-136072856D01*
X135720533Y-136072856D02*
X135768152Y-136168094D01*
X139244819Y-133016904D02*
X138578152Y-132493095D01*
X138578152Y-133016904D02*
X139244819Y-132493095D01*
X131624819Y-133849999D02*
X130624819Y-133849999D01*
X130624819Y-133516666D02*
X130624819Y-132945238D01*
X131624819Y-133230952D02*
X130624819Y-133230952D01*
X130672438Y-132088095D02*
X130624819Y-132183333D01*
X130624819Y-132183333D02*
X130624819Y-132326190D01*
X130624819Y-132326190D02*
X130672438Y-132469047D01*
X130672438Y-132469047D02*
X130767676Y-132564285D01*
X130767676Y-132564285D02*
X130862914Y-132611904D01*
X130862914Y-132611904D02*
X131053390Y-132659523D01*
X131053390Y-132659523D02*
X131196247Y-132659523D01*
X131196247Y-132659523D02*
X131386723Y-132611904D01*
X131386723Y-132611904D02*
X131481961Y-132564285D01*
X131481961Y-132564285D02*
X131577200Y-132469047D01*
X131577200Y-132469047D02*
X131624819Y-132326190D01*
X131624819Y-132326190D02*
X131624819Y-132230952D01*
X131624819Y-132230952D02*
X131577200Y-132088095D01*
X131577200Y-132088095D02*
X131529580Y-132040476D01*
X131529580Y-132040476D02*
X131196247Y-132040476D01*
X131196247Y-132040476D02*
X131196247Y-132230952D01*
X130577200Y-130897619D02*
X131862914Y-131754761D01*
X131624819Y-130564285D02*
X130624819Y-130564285D01*
X130624819Y-130564285D02*
X131339104Y-130230952D01*
X131339104Y-130230952D02*
X130624819Y-129897619D01*
X130624819Y-129897619D02*
X131624819Y-129897619D01*
X131624819Y-129421428D02*
X130624819Y-129421428D01*
X130624819Y-129421428D02*
X130624819Y-129040476D01*
X130624819Y-129040476D02*
X130672438Y-128945238D01*
X130672438Y-128945238D02*
X130720057Y-128897619D01*
X130720057Y-128897619D02*
X130815295Y-128850000D01*
X130815295Y-128850000D02*
X130958152Y-128850000D01*
X130958152Y-128850000D02*
X131053390Y-128897619D01*
X131053390Y-128897619D02*
X131101009Y-128945238D01*
X131101009Y-128945238D02*
X131148628Y-129040476D01*
X131148628Y-129040476D02*
X131148628Y-129421428D01*
X130624819Y-128421428D02*
X131434342Y-128421428D01*
X131434342Y-128421428D02*
X131529580Y-128373809D01*
X131529580Y-128373809D02*
X131577200Y-128326190D01*
X131577200Y-128326190D02*
X131624819Y-128230952D01*
X131624819Y-128230952D02*
X131624819Y-128040476D01*
X131624819Y-128040476D02*
X131577200Y-127945238D01*
X131577200Y-127945238D02*
X131529580Y-127897619D01*
X131529580Y-127897619D02*
X131434342Y-127850000D01*
X131434342Y-127850000D02*
X130624819Y-127850000D01*
X110583333Y-144171009D02*
X110726190Y-144218628D01*
X110726190Y-144218628D02*
X110773809Y-144266247D01*
X110773809Y-144266247D02*
X110821428Y-144361485D01*
X110821428Y-144361485D02*
X110821428Y-144504342D01*
X110821428Y-144504342D02*
X110773809Y-144599580D01*
X110773809Y-144599580D02*
X110726190Y-144647200D01*
X110726190Y-144647200D02*
X110630952Y-144694819D01*
X110630952Y-144694819D02*
X110250000Y-144694819D01*
X110250000Y-144694819D02*
X110250000Y-143694819D01*
X110250000Y-143694819D02*
X110583333Y-143694819D01*
X110583333Y-143694819D02*
X110678571Y-143742438D01*
X110678571Y-143742438D02*
X110726190Y-143790057D01*
X110726190Y-143790057D02*
X110773809Y-143885295D01*
X110773809Y-143885295D02*
X110773809Y-143980533D01*
X110773809Y-143980533D02*
X110726190Y-144075771D01*
X110726190Y-144075771D02*
X110678571Y-144123390D01*
X110678571Y-144123390D02*
X110583333Y-144171009D01*
X110583333Y-144171009D02*
X110250000Y-144171009D01*
X111250000Y-144694819D02*
X111250000Y-144028152D01*
X111250000Y-144218628D02*
X111297619Y-144123390D01*
X111297619Y-144123390D02*
X111345238Y-144075771D01*
X111345238Y-144075771D02*
X111440476Y-144028152D01*
X111440476Y-144028152D02*
X111535714Y-144028152D01*
X112297619Y-144694819D02*
X112297619Y-143694819D01*
X112297619Y-144647200D02*
X112202381Y-144694819D01*
X112202381Y-144694819D02*
X112011905Y-144694819D01*
X112011905Y-144694819D02*
X111916667Y-144647200D01*
X111916667Y-144647200D02*
X111869048Y-144599580D01*
X111869048Y-144599580D02*
X111821429Y-144504342D01*
X111821429Y-144504342D02*
X111821429Y-144218628D01*
X111821429Y-144218628D02*
X111869048Y-144123390D01*
X111869048Y-144123390D02*
X111916667Y-144075771D01*
X111916667Y-144075771D02*
X112011905Y-144028152D01*
X112011905Y-144028152D02*
X112202381Y-144028152D01*
X112202381Y-144028152D02*
X112297619Y-144075771D01*
X113297619Y-144694819D02*
X112726191Y-144694819D01*
X113011905Y-144694819D02*
X113011905Y-143694819D01*
X113011905Y-143694819D02*
X112916667Y-143837676D01*
X112916667Y-143837676D02*
X112821429Y-143932914D01*
X112821429Y-143932914D02*
X112726191Y-143980533D01*
X150244819Y-130288094D02*
X149244819Y-130288094D01*
X149244819Y-130288094D02*
X149244819Y-130049999D01*
X149244819Y-130049999D02*
X149292438Y-129907142D01*
X149292438Y-129907142D02*
X149387676Y-129811904D01*
X149387676Y-129811904D02*
X149482914Y-129764285D01*
X149482914Y-129764285D02*
X149673390Y-129716666D01*
X149673390Y-129716666D02*
X149816247Y-129716666D01*
X149816247Y-129716666D02*
X150006723Y-129764285D01*
X150006723Y-129764285D02*
X150101961Y-129811904D01*
X150101961Y-129811904D02*
X150197200Y-129907142D01*
X150197200Y-129907142D02*
X150244819Y-130049999D01*
X150244819Y-130049999D02*
X150244819Y-130288094D01*
X150244819Y-128764285D02*
X150244819Y-129335713D01*
X150244819Y-129049999D02*
X149244819Y-129049999D01*
X149244819Y-129049999D02*
X149387676Y-129145237D01*
X149387676Y-129145237D02*
X149482914Y-129240475D01*
X149482914Y-129240475D02*
X149530533Y-129335713D01*
X153657200Y-141133332D02*
X153704819Y-140990475D01*
X153704819Y-140990475D02*
X153704819Y-140752380D01*
X153704819Y-140752380D02*
X153657200Y-140657142D01*
X153657200Y-140657142D02*
X153609580Y-140609523D01*
X153609580Y-140609523D02*
X153514342Y-140561904D01*
X153514342Y-140561904D02*
X153419104Y-140561904D01*
X153419104Y-140561904D02*
X153323866Y-140609523D01*
X153323866Y-140609523D02*
X153276247Y-140657142D01*
X153276247Y-140657142D02*
X153228628Y-140752380D01*
X153228628Y-140752380D02*
X153181009Y-140942856D01*
X153181009Y-140942856D02*
X153133390Y-141038094D01*
X153133390Y-141038094D02*
X153085771Y-141085713D01*
X153085771Y-141085713D02*
X152990533Y-141133332D01*
X152990533Y-141133332D02*
X152895295Y-141133332D01*
X152895295Y-141133332D02*
X152800057Y-141085713D01*
X152800057Y-141085713D02*
X152752438Y-141038094D01*
X152752438Y-141038094D02*
X152704819Y-140942856D01*
X152704819Y-140942856D02*
X152704819Y-140704761D01*
X152704819Y-140704761D02*
X152752438Y-140561904D01*
X152704819Y-140228570D02*
X153704819Y-139990475D01*
X153704819Y-139990475D02*
X152990533Y-139799999D01*
X152990533Y-139799999D02*
X153704819Y-139609523D01*
X153704819Y-139609523D02*
X152704819Y-139371428D01*
X152800057Y-139038094D02*
X152752438Y-138990475D01*
X152752438Y-138990475D02*
X152704819Y-138895237D01*
X152704819Y-138895237D02*
X152704819Y-138657142D01*
X152704819Y-138657142D02*
X152752438Y-138561904D01*
X152752438Y-138561904D02*
X152800057Y-138514285D01*
X152800057Y-138514285D02*
X152895295Y-138466666D01*
X152895295Y-138466666D02*
X152990533Y-138466666D01*
X152990533Y-138466666D02*
X153133390Y-138514285D01*
X153133390Y-138514285D02*
X153704819Y-139085713D01*
X153704819Y-139085713D02*
X153704819Y-138466666D01*
X96407200Y-141383332D02*
X96454819Y-141240475D01*
X96454819Y-141240475D02*
X96454819Y-141002380D01*
X96454819Y-141002380D02*
X96407200Y-140907142D01*
X96407200Y-140907142D02*
X96359580Y-140859523D01*
X96359580Y-140859523D02*
X96264342Y-140811904D01*
X96264342Y-140811904D02*
X96169104Y-140811904D01*
X96169104Y-140811904D02*
X96073866Y-140859523D01*
X96073866Y-140859523D02*
X96026247Y-140907142D01*
X96026247Y-140907142D02*
X95978628Y-141002380D01*
X95978628Y-141002380D02*
X95931009Y-141192856D01*
X95931009Y-141192856D02*
X95883390Y-141288094D01*
X95883390Y-141288094D02*
X95835771Y-141335713D01*
X95835771Y-141335713D02*
X95740533Y-141383332D01*
X95740533Y-141383332D02*
X95645295Y-141383332D01*
X95645295Y-141383332D02*
X95550057Y-141335713D01*
X95550057Y-141335713D02*
X95502438Y-141288094D01*
X95502438Y-141288094D02*
X95454819Y-141192856D01*
X95454819Y-141192856D02*
X95454819Y-140954761D01*
X95454819Y-140954761D02*
X95502438Y-140811904D01*
X95454819Y-140478570D02*
X96454819Y-140240475D01*
X96454819Y-140240475D02*
X95740533Y-140049999D01*
X95740533Y-140049999D02*
X96454819Y-139859523D01*
X96454819Y-139859523D02*
X95454819Y-139621428D01*
X96454819Y-138716666D02*
X96454819Y-139288094D01*
X96454819Y-139002380D02*
X95454819Y-139002380D01*
X95454819Y-139002380D02*
X95597676Y-139097618D01*
X95597676Y-139097618D02*
X95692914Y-139192856D01*
X95692914Y-139192856D02*
X95740533Y-139288094D01*
D11*
%TO.C,U1*%
X95525000Y-98070000D02*
X146475000Y-98070000D01*
X95525000Y-98070000D02*
X146475000Y-98070000D01*
X95525000Y-108800000D02*
X95525000Y-98070000D01*
X95525000Y-115511000D02*
X95525000Y-108800000D01*
X95525000Y-126580000D02*
X95525000Y-98070000D01*
X95525000Y-126580000D02*
X95525000Y-115511000D01*
X146475000Y-98070000D02*
X146475000Y-126580000D01*
X146475000Y-103520000D02*
X146475000Y-98070000D01*
X146475000Y-121210000D02*
X146475000Y-103520000D01*
X146475000Y-126580000D02*
X95525000Y-126580000D01*
X146475000Y-126580000D02*
X95525000Y-126580000D01*
X146475000Y-126580000D02*
X146475000Y-121210000D01*
D12*
X105585000Y-127150000D02*
G75*
G02*
X105385000Y-127150000I-100000J0D01*
G01*
X105385000Y-127150000D02*
G75*
G02*
X105585000Y-127150000I100000J0D01*
G01*
D13*
%TO.C,J6*%
X125000000Y-91680000D02*
X125000000Y-88920000D01*
X114730000Y-91680000D02*
X125000000Y-91680000D01*
X114730000Y-91680000D02*
X114730000Y-88920000D01*
X114730000Y-88920000D02*
X125000000Y-88920000D01*
X113460000Y-91680000D02*
X112080000Y-91680000D01*
X112080000Y-91680000D02*
X112080000Y-90300000D01*
D11*
%TO.C,U2*%
X119105000Y-130215000D02*
X140060000Y-130215000D01*
X119105000Y-146090000D02*
X119105000Y-130215000D01*
X134980000Y-137200000D02*
X135615000Y-136565000D01*
X134980000Y-137200000D02*
X135615000Y-137835000D01*
X138790000Y-133390000D02*
X138155000Y-134025000D01*
X138790000Y-133390000D02*
X139425000Y-134025000D01*
X138790000Y-137200000D02*
X134980000Y-137200000D01*
X138790000Y-137200000D02*
X138790000Y-133390000D01*
X140060000Y-130215000D02*
X140060000Y-146090000D01*
X140060000Y-146090000D02*
X119105000Y-146090000D01*
D13*
%TO.C,Brd1*%
X110370000Y-140590000D02*
X110370000Y-132860000D01*
X113130000Y-132860000D02*
X110370000Y-132860000D01*
X113130000Y-140590000D02*
X110370000Y-140590000D01*
X113130000Y-140590000D02*
X113130000Y-132860000D01*
X113130000Y-141860000D02*
X113130000Y-143240000D01*
X113130000Y-143240000D02*
X111750000Y-143240000D01*
%TO.C,D1*%
X151514000Y-131110000D02*
X151670000Y-131110000D01*
X153830000Y-131110000D02*
X153986000Y-131110000D01*
X151514484Y-131110000D02*
G75*
G02*
X151670000Y-127878563I1235516J1560000D01*
G01*
X151670000Y-130590961D02*
G75*
G02*
X151670000Y-128509039I1080000J1040961D01*
G01*
X153830000Y-127878563D02*
G75*
G02*
X153985516Y-131110000I-1080000J-1671437D01*
G01*
X153830000Y-128509039D02*
G75*
G02*
X153830000Y-130590961I-1080000J-1040961D01*
G01*
%TO.C,SW2*%
X145750000Y-137550000D02*
X145750000Y-142050000D01*
X148250000Y-143300000D02*
X149750000Y-143300000D01*
X149750000Y-136300000D02*
X148250000Y-136300000D01*
X152250000Y-142050000D02*
X152250000Y-137550000D01*
%TO.C,SW1*%
X97000000Y-137800000D02*
X97000000Y-142300000D01*
X99500000Y-143550000D02*
X101000000Y-143550000D01*
X101000000Y-136550000D02*
X99500000Y-136550000D01*
X103500000Y-142300000D02*
X103500000Y-137800000D01*
%TD*%
M02*
