%TF.GenerationSoftware,KiCad,Pcbnew,9.0.2*%
%TF.CreationDate,2025-07-16T17:11:34-05:00*%
%TF.ProjectId,guante_primiparos,6775616e-7465-45f7-9072-696d69706172,rev?*%
%TF.SameCoordinates,Original*%
%TF.FileFunction,Copper,L1,Top*%
%TF.FilePolarity,Positive*%
%FSLAX46Y46*%
G04 Gerber Fmt 4.6, Leading zero omitted, Abs format (unit mm)*
G04 Created by KiCad (PCBNEW 9.0.2) date 2025-07-16 17:11:34*
%MOMM*%
%LPD*%
G01*
G04 APERTURE LIST*
%TA.AperFunction,ComponentPad*%
%ADD10R,2.000000X2.000000*%
%TD*%
%TA.AperFunction,ComponentPad*%
%ADD11C,2.000000*%
%TD*%
%TA.AperFunction,ComponentPad*%
%ADD12R,1.700000X1.700000*%
%TD*%
%TA.AperFunction,ComponentPad*%
%ADD13C,1.700000*%
%TD*%
%TA.AperFunction,ComponentPad*%
%ADD14O,1.778000X3.556000*%
%TD*%
%TA.AperFunction,ComponentPad*%
%ADD15R,1.800000X1.800000*%
%TD*%
%TA.AperFunction,ComponentPad*%
%ADD16C,1.800000*%
%TD*%
%TA.AperFunction,Conductor*%
%ADD17C,1.000000*%
%TD*%
G04 APERTURE END LIST*
D10*
%TO.P,U1,1,3V3*%
%TO.N,Net-(Brd1-VCC)*%
X105485000Y-125000000D03*
D11*
%TO.P,U1,2,GND*%
%TO.N,Net-(Brd1-GND)*%
X108025000Y-125000000D03*
%TO.P,U1,3,D15*%
%TO.N,unconnected-(U1-D15-Pad3)*%
X110565000Y-125000000D03*
%TO.P,U1,4,D2*%
%TO.N,unconnected-(U1-D2-Pad4)*%
X113105000Y-125000000D03*
%TO.P,U1,5,D4*%
%TO.N,Net-(U1-D4)*%
X115645000Y-125000000D03*
%TO.P,U1,6,RX2*%
%TO.N,unconnected-(U1-RX2-Pad6)*%
X118185000Y-125000000D03*
%TO.P,U1,7,TX2*%
%TO.N,unconnected-(U1-TX2-Pad7)*%
X120725000Y-125000000D03*
%TO.P,U1,8,D5*%
%TO.N,Net-(U1-D5)*%
X123265000Y-125000000D03*
%TO.P,U1,9,D18*%
%TO.N,Net-(Brd1-SDA)*%
X125805000Y-125000000D03*
%TO.P,U1,10,D19*%
%TO.N,Net-(Brd1-SCL)*%
X128345000Y-125000000D03*
%TO.P,U1,11,D21*%
%TO.N,Net-(U1-D21)*%
X130885000Y-125000000D03*
%TO.P,U1,12,RX0*%
%TO.N,unconnected-(U1-RX0-Pad12)*%
X133425000Y-125000000D03*
%TO.P,U1,13,TX0*%
%TO.N,unconnected-(U1-TX0-Pad13)*%
X135965000Y-125000000D03*
%TO.P,U1,14,D22*%
%TO.N,Net-(U1-D22)*%
X138505000Y-125000000D03*
%TO.P,U1,15,D23*%
%TO.N,Net-(D1-A)*%
X141045000Y-125000000D03*
%TO.P,U1,16,EN*%
%TO.N,unconnected-(U1-EN-Pad16)*%
X141045000Y-99600000D03*
%TO.P,U1,17,VP*%
%TO.N,unconnected-(U1-VP-Pad17)*%
X138505000Y-99600000D03*
%TO.P,U1,18,VN*%
%TO.N,unconnected-(U1-VN-Pad18)*%
X135965000Y-99600000D03*
%TO.P,U1,19,D34*%
%TO.N,unconnected-(U1-D34-Pad19)*%
X133425000Y-99600000D03*
%TO.P,U1,20,D35*%
%TO.N,unconnected-(U1-D35-Pad20)*%
X130885000Y-99600000D03*
%TO.P,U1,21,D32*%
%TO.N,unconnected-(U1-D32-Pad21)*%
X128345000Y-99600000D03*
%TO.P,U1,22,D33*%
%TO.N,unconnected-(U1-D33-Pad22)*%
X125805000Y-99600000D03*
%TO.P,U1,23,D25*%
%TO.N,Net-(J6-Pin_5)*%
X123265000Y-99600000D03*
%TO.P,U1,24,D26*%
%TO.N,Net-(J6-Pin_4)*%
X120725000Y-99600000D03*
%TO.P,U1,25,D27*%
%TO.N,Net-(J6-Pin_3)*%
X118185000Y-99600000D03*
%TO.P,U1,26,D14*%
%TO.N,Net-(J6-Pin_2)*%
X115645000Y-99600000D03*
%TO.P,U1,27,D12*%
%TO.N,unconnected-(U1-D12-Pad27)*%
X113105000Y-99600000D03*
%TO.P,U1,28,D13*%
%TO.N,unconnected-(U1-D13-Pad28)*%
X110565000Y-99600000D03*
%TO.P,U1,29,GND*%
%TO.N,Net-(Brd1-GND)*%
X108025000Y-99600000D03*
%TO.P,U1,30,VIN*%
%TO.N,unconnected-(U1-VIN-Pad30)*%
X105485000Y-99600000D03*
%TD*%
D12*
%TO.P,J6,1,Pin_1*%
%TO.N,Net-(Brd1-GND)*%
X113460000Y-90300000D03*
D13*
%TO.P,J6,2,Pin_2*%
%TO.N,Net-(J6-Pin_2)*%
X116000000Y-90300000D03*
%TO.P,J6,3,Pin_3*%
%TO.N,Net-(J6-Pin_3)*%
X118540000Y-90300000D03*
%TO.P,J6,4,Pin_4*%
%TO.N,Net-(J6-Pin_4)*%
X121080000Y-90300000D03*
%TO.P,J6,5,Pin_5*%
%TO.N,Net-(J6-Pin_5)*%
X123620000Y-90300000D03*
%TD*%
D14*
%TO.P,U2,ADO,ADO*%
%TO.N,unconnected-(U2-PadADO)*%
X136250000Y-143550000D03*
%TO.P,U2,GND,GND*%
%TO.N,Net-(Brd1-GND)*%
X123550000Y-143550000D03*
%TO.P,U2,INT,INT*%
%TO.N,unconnected-(U2-PadINT)*%
X138790000Y-143550000D03*
%TO.P,U2,SCL,SCL*%
%TO.N,Net-(U1-D22)*%
X126090000Y-143550000D03*
%TO.P,U2,SDA,SDA*%
%TO.N,Net-(U1-D21)*%
X128630000Y-143550000D03*
%TO.P,U2,VCC,VCC*%
%TO.N,Net-(Brd1-VCC)*%
X121010000Y-143550000D03*
%TO.P,U2,XCL,XCL*%
%TO.N,unconnected-(U2-PadXCL)*%
X133710000Y-143550000D03*
%TO.P,U2,XDA,XDA*%
%TO.N,unconnected-(U2-PadXDA)*%
X131170000Y-143550000D03*
%TD*%
D12*
%TO.P,Brd1,1,GND*%
%TO.N,Net-(Brd1-GND)*%
X111750000Y-141860000D03*
D13*
%TO.P,Brd1,2,VCC*%
%TO.N,Net-(Brd1-VCC)*%
X111750000Y-139320000D03*
%TO.P,Brd1,3,SCL*%
%TO.N,Net-(Brd1-SCL)*%
X111750000Y-136780000D03*
%TO.P,Brd1,4,SDA*%
%TO.N,Net-(Brd1-SDA)*%
X111750000Y-134240000D03*
%TD*%
D15*
%TO.P,D1,1,K*%
%TO.N,Net-(Brd1-GND)*%
X152750000Y-130820000D03*
D16*
%TO.P,D1,2,A*%
%TO.N,Net-(D1-A)*%
X152750000Y-128280000D03*
%TD*%
D11*
%TO.P,SW2,1,1*%
%TO.N,Net-(U1-D5)*%
X151250000Y-136550000D03*
%TO.P,SW2,1,2*%
X146750000Y-136550000D03*
%TO.P,SW2,1,1*%
%TO.N,Net-(Brd1-GND)*%
X151250000Y-143050000D03*
%TO.P,SW2,2,2*%
X146750000Y-143050000D03*
%TD*%
%TO.P,SW1,1,1*%
%TO.N,Net-(U1-D4)*%
X98000000Y-136800000D03*
%TO.P,SW1,1,2*%
X102500000Y-136800000D03*
%TO.P,SW1,2,1*%
%TO.N,Net-(Brd1-GND)*%
X98000000Y-143300000D03*
%TO.P,SW1,2,2*%
X102500000Y-143300000D03*
%TD*%
D17*
%TO.N,Net-(U1-D4)*%
X115645000Y-126414213D02*
X115645000Y-125000000D01*
X105259213Y-136800000D02*
X115645000Y-126414213D01*
X102500000Y-136800000D02*
X105259213Y-136800000D01*
%TO.N,Net-(U1-D5)*%
X123265000Y-126414213D02*
X123265000Y-125000000D01*
X133400787Y-136550000D02*
X123265000Y-126414213D01*
X146750000Y-136550000D02*
X133400787Y-136550000D01*
X146750000Y-136550000D02*
X147020000Y-136550000D01*
%TD*%
M02*
