%TF.GenerationSoftware,KiCad,Pcbnew,9.0.2*%
%TF.CreationDate,2025-07-16T17:11:34-05:00*%
%TF.ProjectId,guante_primiparos,6775616e-7465-45f7-9072-696d69706172,rev?*%
%TF.SameCoordinates,Original*%
%TF.FileFunction,Soldermask,Bot*%
%TF.FilePolarity,Negative*%
%FSLAX46Y46*%
G04 Gerber Fmt 4.6, Leading zero omitted, Abs format (unit mm)*
G04 Created by KiCad (PCBNEW 9.0.2) date 2025-07-16 17:11:34*
%MOMM*%
%LPD*%
G01*
G04 APERTURE LIST*
G04 Aperture macros list*
%AMRoundRect*
0 Rectangle with rounded corners*
0 $1 Rounding radius*
0 $2 $3 $4 $5 $6 $7 $8 $9 X,Y pos of 4 corners*
0 Add a 4 corners polygon primitive as box body*
4,1,4,$2,$3,$4,$5,$6,$7,$8,$9,$2,$3,0*
0 Add four circle primitives for the rounded corners*
1,1,$1+$1,$2,$3*
1,1,$1+$1,$4,$5*
1,1,$1+$1,$6,$7*
1,1,$1+$1,$8,$9*
0 Add four rect primitives between the rounded corners*
20,1,$1+$1,$2,$3,$4,$5,0*
20,1,$1+$1,$4,$5,$6,$7,0*
20,1,$1+$1,$6,$7,$8,$9,0*
20,1,$1+$1,$8,$9,$2,$3,0*%
G04 Aperture macros list end*
%ADD10C,3.000000*%
%ADD11RoundRect,0.102000X1.000000X-1.000000X1.000000X1.000000X-1.000000X1.000000X-1.000000X-1.000000X0*%
%ADD12C,2.204000*%
%ADD13R,1.700000X1.700000*%
%ADD14C,1.700000*%
%ADD15O,1.982000X3.760000*%
%ADD16R,1.800000X1.800000*%
%ADD17C,1.800000*%
%ADD18C,2.000000*%
G04 APERTURE END LIST*
D10*
%TO.C,U1*%
X97525000Y-124580000D03*
X144475000Y-124580000D03*
X97525000Y-100070000D03*
X144475000Y-100070000D03*
D11*
X105485000Y-125000000D03*
D12*
X108025000Y-125000000D03*
X110565000Y-125000000D03*
X113105000Y-125000000D03*
X115645000Y-125000000D03*
X118185000Y-125000000D03*
X120725000Y-125000000D03*
X123265000Y-125000000D03*
X125805000Y-125000000D03*
X128345000Y-125000000D03*
X130885000Y-125000000D03*
X133425000Y-125000000D03*
X135965000Y-125000000D03*
X138505000Y-125000000D03*
X141045000Y-125000000D03*
X141045000Y-99600000D03*
X138505000Y-99600000D03*
X135965000Y-99600000D03*
X133425000Y-99600000D03*
X130885000Y-99600000D03*
X128345000Y-99600000D03*
X125805000Y-99600000D03*
X123265000Y-99600000D03*
X120725000Y-99600000D03*
X118185000Y-99600000D03*
X115645000Y-99600000D03*
X113105000Y-99600000D03*
X110565000Y-99600000D03*
X108025000Y-99600000D03*
X105485000Y-99600000D03*
%TD*%
D13*
%TO.C,J6*%
X113460000Y-90300000D03*
D14*
X116000000Y-90300000D03*
X118540000Y-90300000D03*
X121080000Y-90300000D03*
X123620000Y-90300000D03*
%TD*%
D10*
%TO.C,U2*%
X121500000Y-132620000D03*
X137650000Y-132610000D03*
D15*
X136250000Y-143550000D03*
X123550000Y-143550000D03*
X138790000Y-143550000D03*
X126090000Y-143550000D03*
X128630000Y-143550000D03*
X121010000Y-143550000D03*
X133710000Y-143550000D03*
X131170000Y-143550000D03*
%TD*%
D13*
%TO.C,Brd1*%
X111750000Y-141860000D03*
D14*
X111750000Y-139320000D03*
X111750000Y-136780000D03*
X111750000Y-134240000D03*
%TD*%
D16*
%TO.C,D1*%
X152750000Y-130820000D03*
D17*
X152750000Y-128280000D03*
%TD*%
D18*
%TO.C,SW2*%
X151250000Y-136550000D03*
X146750000Y-136550000D03*
X151250000Y-143050000D03*
X146750000Y-143050000D03*
%TD*%
%TO.C,SW1*%
X98000000Y-136800000D03*
X102500000Y-136800000D03*
X98000000Y-143300000D03*
X102500000Y-143300000D03*
%TD*%
M02*
