M48
; DRILL file {KiCad 9.0.2} date 2025-07-16T17:11:36-0500
; FORMAT={-:-/ absolute / metric / decimal}
; #@! TF.CreationDate,2025-07-16T17:11:36-05:00
; #@! TF.GenerationSoftware,Kicad,Pcbnew,9.0.2
; #@! TF.FileFunction,Plated,1,2,PTH
FMAT,2
METRIC
; #@! TA.AperFunction,Plated,PTH,ComponentDrill
T1C0.800
; #@! TA.AperFunction,Plated,PTH,ComponentDrill
T2C0.900
; #@! TA.AperFunction,Plated,PTH,ComponentDrill
T3C1.000
; #@! TA.AperFunction,Plated,PTH,ComponentDrill
T4C1.020
; #@! TA.AperFunction,Plated,PTH,ComponentDrill
T5C1.100
%
G90
G05
T1
X121.01Y-143.55
X123.55Y-143.55
X126.09Y-143.55
X128.63Y-143.55
X131.17Y-143.55
X133.71Y-143.55
X136.25Y-143.55
X138.79Y-143.55
T2
X152.75Y-128.28
X152.75Y-130.82
T3
X111.75Y-134.24
X111.75Y-136.78
X111.75Y-139.32
X111.75Y-141.86
X113.46Y-90.3
X116.0Y-90.3
X118.54Y-90.3
X121.08Y-90.3
X123.62Y-90.3
T4
X105.485Y-99.6
X105.485Y-125.0
X108.025Y-99.6
X108.025Y-125.0
X110.565Y-99.6
X110.565Y-125.0
X113.105Y-99.6
X113.105Y-125.0
X115.645Y-99.6
X115.645Y-125.0
X118.185Y-99.6
X118.185Y-125.0
X120.725Y-99.6
X120.725Y-125.0
X123.265Y-99.6
X123.265Y-125.0
X125.805Y-99.6
X125.805Y-125.0
X128.345Y-99.6
X128.345Y-125.0
X130.885Y-99.6
X130.885Y-125.0
X133.425Y-99.6
X133.425Y-125.0
X135.965Y-99.6
X135.965Y-125.0
X138.505Y-99.6
X138.505Y-125.0
X141.045Y-99.6
X141.045Y-125.0
T5
X98.0Y-136.8
X98.0Y-143.3
X102.5Y-136.8
X102.5Y-143.3
X146.75Y-136.55
X146.75Y-143.05
X151.25Y-136.55
X151.25Y-143.05
M30
