%TF.GenerationSoftware,KiCad,Pcbnew,9.0.2*%
%TF.CreationDate,2025-07-16T17:11:34-05:00*%
%TF.ProjectId,guante_primiparos,6775616e-7465-45f7-9072-696d69706172,rev?*%
%TF.SameCoordinates,Original*%
%TF.FileFunction,Copper,L2,Bot*%
%TF.FilePolarity,Positive*%
%FSLAX46Y46*%
G04 Gerber Fmt 4.6, Leading zero omitted, Abs format (unit mm)*
G04 Created by KiCad (PCBNEW 9.0.2) date 2025-07-16 17:11:34*
%MOMM*%
%LPD*%
G01*
G04 APERTURE LIST*
%TA.AperFunction,ComponentPad*%
%ADD10R,2.000000X2.000000*%
%TD*%
%TA.AperFunction,ComponentPad*%
%ADD11C,2.000000*%
%TD*%
%TA.AperFunction,ComponentPad*%
%ADD12R,1.700000X1.700000*%
%TD*%
%TA.AperFunction,ComponentPad*%
%ADD13C,1.700000*%
%TD*%
%TA.AperFunction,ComponentPad*%
%ADD14O,1.778000X3.556000*%
%TD*%
%TA.AperFunction,ComponentPad*%
%ADD15R,1.800000X1.800000*%
%TD*%
%TA.AperFunction,ComponentPad*%
%ADD16C,1.800000*%
%TD*%
%TA.AperFunction,Conductor*%
%ADD17C,1.000000*%
%TD*%
G04 APERTURE END LIST*
D10*
%TO.P,U1,1,3V3*%
%TO.N,Net-(Brd1-VCC)*%
X105485000Y-125000000D03*
D11*
%TO.P,U1,2,GND*%
%TO.N,Net-(Brd1-GND)*%
X108025000Y-125000000D03*
%TO.P,U1,3,D15*%
%TO.N,unconnected-(U1-D15-Pad3)*%
X110565000Y-125000000D03*
%TO.P,U1,4,D2*%
%TO.N,unconnected-(U1-D2-Pad4)*%
X113105000Y-125000000D03*
%TO.P,U1,5,D4*%
%TO.N,Net-(U1-D4)*%
X115645000Y-125000000D03*
%TO.P,U1,6,RX2*%
%TO.N,unconnected-(U1-RX2-Pad6)*%
X118185000Y-125000000D03*
%TO.P,U1,7,TX2*%
%TO.N,unconnected-(U1-TX2-Pad7)*%
X120725000Y-125000000D03*
%TO.P,U1,8,D5*%
%TO.N,Net-(U1-D5)*%
X123265000Y-125000000D03*
%TO.P,U1,9,D18*%
%TO.N,Net-(Brd1-SDA)*%
X125805000Y-125000000D03*
%TO.P,U1,10,D19*%
%TO.N,Net-(Brd1-SCL)*%
X128345000Y-125000000D03*
%TO.P,U1,11,D21*%
%TO.N,Net-(U1-D21)*%
X130885000Y-125000000D03*
%TO.P,U1,12,RX0*%
%TO.N,unconnected-(U1-RX0-Pad12)*%
X133425000Y-125000000D03*
%TO.P,U1,13,TX0*%
%TO.N,unconnected-(U1-TX0-Pad13)*%
X135965000Y-125000000D03*
%TO.P,U1,14,D22*%
%TO.N,Net-(U1-D22)*%
X138505000Y-125000000D03*
%TO.P,U1,15,D23*%
%TO.N,Net-(D1-A)*%
X141045000Y-125000000D03*
%TO.P,U1,16,EN*%
%TO.N,unconnected-(U1-EN-Pad16)*%
X141045000Y-99600000D03*
%TO.P,U1,17,VP*%
%TO.N,unconnected-(U1-VP-Pad17)*%
X138505000Y-99600000D03*
%TO.P,U1,18,VN*%
%TO.N,unconnected-(U1-VN-Pad18)*%
X135965000Y-99600000D03*
%TO.P,U1,19,D34*%
%TO.N,unconnected-(U1-D34-Pad19)*%
X133425000Y-99600000D03*
%TO.P,U1,20,D35*%
%TO.N,unconnected-(U1-D35-Pad20)*%
X130885000Y-99600000D03*
%TO.P,U1,21,D32*%
%TO.N,unconnected-(U1-D32-Pad21)*%
X128345000Y-99600000D03*
%TO.P,U1,22,D33*%
%TO.N,unconnected-(U1-D33-Pad22)*%
X125805000Y-99600000D03*
%TO.P,U1,23,D25*%
%TO.N,Net-(J6-Pin_5)*%
X123265000Y-99600000D03*
%TO.P,U1,24,D26*%
%TO.N,Net-(J6-Pin_4)*%
X120725000Y-99600000D03*
%TO.P,U1,25,D27*%
%TO.N,Net-(J6-Pin_3)*%
X118185000Y-99600000D03*
%TO.P,U1,26,D14*%
%TO.N,Net-(J6-Pin_2)*%
X115645000Y-99600000D03*
%TO.P,U1,27,D12*%
%TO.N,unconnected-(U1-D12-Pad27)*%
X113105000Y-99600000D03*
%TO.P,U1,28,D13*%
%TO.N,unconnected-(U1-D13-Pad28)*%
X110565000Y-99600000D03*
%TO.P,U1,29,GND*%
%TO.N,Net-(Brd1-GND)*%
X108025000Y-99600000D03*
%TO.P,U1,30,VIN*%
%TO.N,unconnected-(U1-VIN-Pad30)*%
X105485000Y-99600000D03*
%TD*%
D12*
%TO.P,J6,1,Pin_1*%
%TO.N,Net-(Brd1-GND)*%
X113460000Y-90300000D03*
D13*
%TO.P,J6,2,Pin_2*%
%TO.N,Net-(J6-Pin_2)*%
X116000000Y-90300000D03*
%TO.P,J6,3,Pin_3*%
%TO.N,Net-(J6-Pin_3)*%
X118540000Y-90300000D03*
%TO.P,J6,4,Pin_4*%
%TO.N,Net-(J6-Pin_4)*%
X121080000Y-90300000D03*
%TO.P,J6,5,Pin_5*%
%TO.N,Net-(J6-Pin_5)*%
X123620000Y-90300000D03*
%TD*%
D14*
%TO.P,U2,ADO,ADO*%
%TO.N,unconnected-(U2-PadADO)*%
X136250000Y-143550000D03*
%TO.P,U2,GND,GND*%
%TO.N,Net-(Brd1-GND)*%
X123550000Y-143550000D03*
%TO.P,U2,INT,INT*%
%TO.N,unconnected-(U2-PadINT)*%
X138790000Y-143550000D03*
%TO.P,U2,SCL,SCL*%
%TO.N,Net-(U1-D22)*%
X126090000Y-143550000D03*
%TO.P,U2,SDA,SDA*%
%TO.N,Net-(U1-D21)*%
X128630000Y-143550000D03*
%TO.P,U2,VCC,VCC*%
%TO.N,Net-(Brd1-VCC)*%
X121010000Y-143550000D03*
%TO.P,U2,XCL,XCL*%
%TO.N,unconnected-(U2-PadXCL)*%
X133710000Y-143550000D03*
%TO.P,U2,XDA,XDA*%
%TO.N,unconnected-(U2-PadXDA)*%
X131170000Y-143550000D03*
%TD*%
D12*
%TO.P,Brd1,1,GND*%
%TO.N,Net-(Brd1-GND)*%
X111750000Y-141860000D03*
D13*
%TO.P,Brd1,2,VCC*%
%TO.N,Net-(Brd1-VCC)*%
X111750000Y-139320000D03*
%TO.P,Brd1,3,SCL*%
%TO.N,Net-(Brd1-SCL)*%
X111750000Y-136780000D03*
%TO.P,Brd1,4,SDA*%
%TO.N,Net-(Brd1-SDA)*%
X111750000Y-134240000D03*
%TD*%
D15*
%TO.P,D1,1,K*%
%TO.N,Net-(Brd1-GND)*%
X152750000Y-130820000D03*
D16*
%TO.P,D1,2,A*%
%TO.N,Net-(D1-A)*%
X152750000Y-128280000D03*
%TD*%
D11*
%TO.P,SW2,1,1*%
%TO.N,Net-(U1-D5)*%
X151250000Y-136550000D03*
%TO.P,SW2,1,2*%
X146750000Y-136550000D03*
%TO.P,SW2,1,1*%
%TO.N,Net-(Brd1-GND)*%
X151250000Y-143050000D03*
%TO.P,SW2,2,2*%
X146750000Y-143050000D03*
%TD*%
%TO.P,SW1,1,1*%
%TO.N,Net-(U1-D4)*%
X98000000Y-136800000D03*
%TO.P,SW1,1,2*%
X102500000Y-136800000D03*
%TO.P,SW1,2,1*%
%TO.N,Net-(Brd1-GND)*%
X98000000Y-143300000D03*
%TO.P,SW1,2,2*%
X102500000Y-143300000D03*
%TD*%
D17*
%TO.N,Net-(Brd1-GND)*%
X108025000Y-125000000D02*
X108025000Y-123525000D01*
X108025000Y-98025000D02*
X108000000Y-98000000D01*
X108025000Y-99600000D02*
X108025000Y-98025000D01*
%TO.N,Net-(U1-D21)*%
X128630000Y-142528136D02*
X128630000Y-143550000D01*
X130885000Y-125000000D02*
X130885000Y-140273136D01*
X130885000Y-140273136D02*
X128630000Y-142528136D01*
%TO.N,Net-(U1-D22)*%
X126090000Y-144571864D02*
X126090000Y-143550000D01*
X128018136Y-146500000D02*
X126090000Y-144571864D01*
X130000000Y-146500000D02*
X128018136Y-146500000D01*
X131500000Y-148000000D02*
X130000000Y-146500000D01*
X141000000Y-148000000D02*
X131500000Y-148000000D01*
X142500000Y-146500000D02*
X141000000Y-148000000D01*
X142500000Y-142000000D02*
X142500000Y-146500000D01*
X141000000Y-140500000D02*
X142500000Y-142000000D01*
X141000000Y-131433102D02*
X141000000Y-140500000D01*
X138505000Y-128938102D02*
X141000000Y-131433102D01*
X138505000Y-125000000D02*
X138505000Y-128938102D01*
%TO.N,Net-(J6-Pin_5)*%
X123265000Y-90655000D02*
X123620000Y-90300000D01*
X123265000Y-99600000D02*
X123265000Y-90655000D01*
%TO.N,Net-(J6-Pin_4)*%
X120725000Y-90655000D02*
X121080000Y-90300000D01*
X120725000Y-99600000D02*
X120725000Y-90655000D01*
%TO.N,Net-(J6-Pin_3)*%
X118185000Y-90655000D02*
X118540000Y-90300000D01*
X118185000Y-99600000D02*
X118185000Y-90655000D01*
%TO.N,Net-(J6-Pin_2)*%
X115645000Y-90655000D02*
X116000000Y-90300000D01*
X115645000Y-99600000D02*
X115645000Y-90655000D01*
%TO.N,Net-(Brd1-SDA)*%
X118489000Y-127501000D02*
X124718213Y-127501000D01*
X125805000Y-126414213D02*
X125805000Y-125000000D01*
X111750000Y-134240000D02*
X118489000Y-127501000D01*
X124718213Y-127501000D02*
X125805000Y-126414213D01*
%TO.N,Net-(Brd1-VCC)*%
X109399000Y-138171081D02*
X110547919Y-139320000D01*
X105485000Y-125000000D02*
X105485000Y-127172158D01*
X105485000Y-127172158D02*
X109399000Y-131086158D01*
X121010000Y-143550000D02*
X116780000Y-139320000D01*
X116780000Y-139320000D02*
X111750000Y-139320000D01*
X110547919Y-139320000D02*
X111750000Y-139320000D01*
X109399000Y-131086158D02*
X109399000Y-138171081D01*
%TO.N,Net-(Brd1-GND)*%
X152750000Y-130820000D02*
X152480000Y-130820000D01*
%TO.N,Net-(Brd1-SCL)*%
X111750000Y-136780000D02*
X121866898Y-136780000D01*
X121866898Y-136780000D02*
X128345000Y-130301898D01*
X128345000Y-130301898D02*
X128345000Y-125000000D01*
%TO.N,Net-(D1-A)*%
X142910787Y-128280000D02*
X141045000Y-126414213D01*
X152750000Y-128280000D02*
X142910787Y-128280000D01*
X141045000Y-126414213D02*
X141045000Y-125000000D01*
%TO.N,Net-(U1-D4)*%
X102500000Y-136800000D02*
X98000000Y-136800000D01*
%TO.N,Net-(U1-D5)*%
X146750000Y-136550000D02*
X151250000Y-136550000D01*
%TD*%
%TA.AperFunction,Conductor*%
%TO.N,Net-(Brd1-GND)*%
G36*
X129303834Y-131567605D02*
G01*
X129359767Y-131609477D01*
X129384184Y-131674941D01*
X129384500Y-131683787D01*
X129384500Y-139600246D01*
X129364815Y-139667285D01*
X129348181Y-139687927D01*
X128245411Y-140790696D01*
X128189824Y-140822790D01*
X128021332Y-140867938D01*
X127792508Y-140962720D01*
X127792499Y-140962724D01*
X127578004Y-141086563D01*
X127577989Y-141086573D01*
X127435486Y-141195920D01*
X127370317Y-141221114D01*
X127301872Y-141207076D01*
X127284514Y-141195920D01*
X127142010Y-141086573D01*
X127142008Y-141086572D01*
X127142002Y-141086567D01*
X127088593Y-141055731D01*
X126927500Y-140962724D01*
X126927491Y-140962720D01*
X126698667Y-140867938D01*
X126521627Y-140820500D01*
X126459414Y-140803830D01*
X126459413Y-140803829D01*
X126459410Y-140803829D01*
X126213853Y-140771501D01*
X126213850Y-140771500D01*
X126213844Y-140771500D01*
X125966156Y-140771500D01*
X125966150Y-140771500D01*
X125966146Y-140771501D01*
X125720589Y-140803829D01*
X125481332Y-140867938D01*
X125252508Y-140962720D01*
X125252499Y-140962724D01*
X125038004Y-141086563D01*
X125037989Y-141086573D01*
X124841494Y-141237349D01*
X124841487Y-141237355D01*
X124666355Y-141412487D01*
X124571057Y-141536682D01*
X124514629Y-141577884D01*
X124444883Y-141582039D01*
X124399796Y-141561513D01*
X124277998Y-141473023D01*
X124083191Y-141373762D01*
X124083188Y-141373761D01*
X123875258Y-141306201D01*
X123800000Y-141294281D01*
X123800000Y-143234314D01*
X123795606Y-143229920D01*
X123704394Y-143177259D01*
X123602661Y-143150000D01*
X123497339Y-143150000D01*
X123395606Y-143177259D01*
X123304394Y-143229920D01*
X123300000Y-143234314D01*
X123300000Y-141294281D01*
X123224741Y-141306201D01*
X123016811Y-141373761D01*
X123016808Y-141373762D01*
X122822001Y-141473023D01*
X122700204Y-141561513D01*
X122634397Y-141584993D01*
X122566344Y-141569167D01*
X122528943Y-141536682D01*
X122480095Y-141473023D01*
X122433649Y-141412493D01*
X122433647Y-141412491D01*
X122433644Y-141412487D01*
X122258512Y-141237355D01*
X122258505Y-141237349D01*
X122062010Y-141086573D01*
X122062008Y-141086572D01*
X122062002Y-141086567D01*
X122008593Y-141055731D01*
X121847500Y-140962724D01*
X121847491Y-140962720D01*
X121618667Y-140867938D01*
X121441627Y-140820500D01*
X121379414Y-140803830D01*
X121379413Y-140803829D01*
X121379410Y-140803829D01*
X121133853Y-140771501D01*
X121133850Y-140771500D01*
X121133844Y-140771500D01*
X120886156Y-140771500D01*
X120886150Y-140771500D01*
X120886146Y-140771501D01*
X120640589Y-140803829D01*
X120640575Y-140803832D01*
X120508838Y-140839131D01*
X120438988Y-140837468D01*
X120389064Y-140807037D01*
X118074208Y-138492181D01*
X118040723Y-138430858D01*
X118045707Y-138361166D01*
X118087579Y-138305233D01*
X118153043Y-138280816D01*
X118161889Y-138280500D01*
X121984995Y-138280500D01*
X122218266Y-138243553D01*
X122300221Y-138216924D01*
X122442890Y-138170568D01*
X122653332Y-138063343D01*
X122844408Y-137924517D01*
X129172819Y-131596106D01*
X129234142Y-131562621D01*
X129303834Y-131567605D01*
G37*
%TD.AperFunction*%
%TA.AperFunction,Conductor*%
G36*
X155442539Y-84520185D02*
G01*
X155488294Y-84572989D01*
X155499500Y-84624500D01*
X155499500Y-150375500D01*
X155479815Y-150442539D01*
X155427011Y-150488294D01*
X155375500Y-150499500D01*
X94624500Y-150499500D01*
X94557461Y-150479815D01*
X94511706Y-150427011D01*
X94500500Y-150375500D01*
X94500500Y-143181947D01*
X96500000Y-143181947D01*
X96500000Y-143418052D01*
X96536934Y-143651247D01*
X96609897Y-143875802D01*
X96717087Y-144086174D01*
X96777338Y-144169104D01*
X96777340Y-144169105D01*
X97476212Y-143470233D01*
X97487482Y-143512292D01*
X97559890Y-143637708D01*
X97662292Y-143740110D01*
X97787708Y-143812518D01*
X97829765Y-143823787D01*
X97130893Y-144522658D01*
X97213828Y-144582914D01*
X97424197Y-144690102D01*
X97648752Y-144763065D01*
X97648751Y-144763065D01*
X97881948Y-144800000D01*
X98118052Y-144800000D01*
X98351247Y-144763065D01*
X98575802Y-144690102D01*
X98786163Y-144582918D01*
X98786169Y-144582914D01*
X98869104Y-144522658D01*
X98869105Y-144522658D01*
X98170233Y-143823787D01*
X98212292Y-143812518D01*
X98337708Y-143740110D01*
X98440110Y-143637708D01*
X98512518Y-143512292D01*
X98523787Y-143470234D01*
X99222658Y-144169105D01*
X99222658Y-144169104D01*
X99282914Y-144086169D01*
X99282918Y-144086163D01*
X99390102Y-143875802D01*
X99463065Y-143651247D01*
X99500000Y-143418052D01*
X99500000Y-143181947D01*
X101000000Y-143181947D01*
X101000000Y-143418052D01*
X101036934Y-143651247D01*
X101109897Y-143875802D01*
X101217087Y-144086174D01*
X101277338Y-144169104D01*
X101277340Y-144169105D01*
X101976212Y-143470233D01*
X101987482Y-143512292D01*
X102059890Y-143637708D01*
X102162292Y-143740110D01*
X102287708Y-143812518D01*
X102329765Y-143823787D01*
X101630893Y-144522658D01*
X101713828Y-144582914D01*
X101924197Y-144690102D01*
X102148752Y-144763065D01*
X102148751Y-144763065D01*
X102381948Y-144800000D01*
X102618052Y-144800000D01*
X102851247Y-144763065D01*
X103075802Y-144690102D01*
X103286163Y-144582918D01*
X103286169Y-144582914D01*
X103369104Y-144522658D01*
X103369105Y-144522658D01*
X102670233Y-143823787D01*
X102712292Y-143812518D01*
X102837708Y-143740110D01*
X102940110Y-143637708D01*
X103012518Y-143512292D01*
X103023787Y-143470234D01*
X103722658Y-144169105D01*
X103722658Y-144169104D01*
X103782914Y-144086169D01*
X103782918Y-144086163D01*
X103890102Y-143875802D01*
X103963065Y-143651247D01*
X104000000Y-143418052D01*
X104000000Y-143181947D01*
X103963065Y-142948752D01*
X103890102Y-142724197D01*
X103782914Y-142513828D01*
X103722658Y-142430894D01*
X103722658Y-142430893D01*
X103023787Y-143129765D01*
X103012518Y-143087708D01*
X102940110Y-142962292D01*
X102837708Y-142859890D01*
X102712292Y-142787482D01*
X102670234Y-142776212D01*
X103369105Y-142077340D01*
X103369105Y-142077339D01*
X103286174Y-142017087D01*
X103075802Y-141909897D01*
X102851247Y-141836934D01*
X102851248Y-141836934D01*
X102618052Y-141800000D01*
X102381948Y-141800000D01*
X102148752Y-141836934D01*
X101924197Y-141909897D01*
X101713830Y-142017084D01*
X101630894Y-142077340D01*
X102329766Y-142776212D01*
X102287708Y-142787482D01*
X102162292Y-142859890D01*
X102059890Y-142962292D01*
X101987482Y-143087708D01*
X101976212Y-143129766D01*
X101277340Y-142430894D01*
X101217084Y-142513830D01*
X101109897Y-142724197D01*
X101036934Y-142948752D01*
X101000000Y-143181947D01*
X99500000Y-143181947D01*
X99463065Y-142948752D01*
X99390102Y-142724197D01*
X99282914Y-142513828D01*
X99222658Y-142430894D01*
X99222658Y-142430893D01*
X98523787Y-143129765D01*
X98512518Y-143087708D01*
X98440110Y-142962292D01*
X98337708Y-142859890D01*
X98212292Y-142787482D01*
X98170234Y-142776212D01*
X98869105Y-142077340D01*
X98869104Y-142077339D01*
X98786174Y-142017087D01*
X98575802Y-141909897D01*
X98351247Y-141836934D01*
X98351248Y-141836934D01*
X98118052Y-141800000D01*
X97881948Y-141800000D01*
X97648752Y-141836934D01*
X97424197Y-141909897D01*
X97213830Y-142017084D01*
X97130894Y-142077340D01*
X97829766Y-142776212D01*
X97787708Y-142787482D01*
X97662292Y-142859890D01*
X97559890Y-142962292D01*
X97487482Y-143087708D01*
X97476212Y-143129766D01*
X96777340Y-142430894D01*
X96717084Y-142513830D01*
X96609897Y-142724197D01*
X96536934Y-142948752D01*
X96500000Y-143181947D01*
X94500500Y-143181947D01*
X94500500Y-136668872D01*
X95999500Y-136668872D01*
X95999500Y-136931127D01*
X96026123Y-137133339D01*
X96033730Y-137191116D01*
X96099531Y-137436690D01*
X96101602Y-137444418D01*
X96101605Y-137444428D01*
X96201953Y-137686690D01*
X96201958Y-137686700D01*
X96333075Y-137913803D01*
X96492718Y-138121851D01*
X96492726Y-138121860D01*
X96678140Y-138307274D01*
X96678148Y-138307281D01*
X96678149Y-138307282D01*
X96726554Y-138344424D01*
X96886196Y-138466924D01*
X97113299Y-138598041D01*
X97113309Y-138598046D01*
X97355571Y-138698394D01*
X97355581Y-138698398D01*
X97608884Y-138766270D01*
X97868880Y-138800500D01*
X97868887Y-138800500D01*
X98131113Y-138800500D01*
X98131120Y-138800500D01*
X98391116Y-138766270D01*
X98644419Y-138698398D01*
X98886697Y-138598043D01*
X99113803Y-138466924D01*
X99297295Y-138326124D01*
X99362463Y-138300930D01*
X99372781Y-138300500D01*
X101127219Y-138300500D01*
X101194258Y-138320185D01*
X101202700Y-138326120D01*
X101264026Y-138373178D01*
X101386196Y-138466924D01*
X101613299Y-138598041D01*
X101613309Y-138598046D01*
X101855571Y-138698394D01*
X101855581Y-138698398D01*
X102108884Y-138766270D01*
X102368880Y-138800500D01*
X102368887Y-138800500D01*
X102631113Y-138800500D01*
X102631120Y-138800500D01*
X102891116Y-138766270D01*
X103144419Y-138698398D01*
X103386697Y-138598043D01*
X103613803Y-138466924D01*
X103821851Y-138307282D01*
X103821855Y-138307277D01*
X103821860Y-138307274D01*
X104007274Y-138121860D01*
X104007277Y-138121855D01*
X104007282Y-138121851D01*
X104166924Y-137913803D01*
X104298043Y-137686697D01*
X104398398Y-137444419D01*
X104466270Y-137191116D01*
X104500500Y-136931120D01*
X104500500Y-136668880D01*
X104466270Y-136408884D01*
X104398398Y-136155581D01*
X104398394Y-136155571D01*
X104298046Y-135913309D01*
X104298041Y-135913299D01*
X104166924Y-135686196D01*
X104007281Y-135478148D01*
X104007274Y-135478140D01*
X103821860Y-135292726D01*
X103821851Y-135292718D01*
X103613803Y-135133075D01*
X103386700Y-135001958D01*
X103386690Y-135001953D01*
X103144428Y-134901605D01*
X103144421Y-134901603D01*
X103144419Y-134901602D01*
X102891116Y-134833730D01*
X102831582Y-134825892D01*
X102631127Y-134799500D01*
X102631120Y-134799500D01*
X102368880Y-134799500D01*
X102368872Y-134799500D01*
X102137772Y-134829926D01*
X102108884Y-134833730D01*
X101855581Y-134901602D01*
X101855571Y-134901605D01*
X101613309Y-135001953D01*
X101613299Y-135001958D01*
X101386196Y-135133075D01*
X101262296Y-135228149D01*
X101202704Y-135273875D01*
X101137537Y-135299070D01*
X101127219Y-135299500D01*
X99372781Y-135299500D01*
X99305742Y-135279815D01*
X99297299Y-135273879D01*
X99233148Y-135224653D01*
X99113803Y-135133075D01*
X98886700Y-135001958D01*
X98886690Y-135001953D01*
X98644428Y-134901605D01*
X98644421Y-134901603D01*
X98644419Y-134901602D01*
X98391116Y-134833730D01*
X98331582Y-134825892D01*
X98131127Y-134799500D01*
X98131120Y-134799500D01*
X97868880Y-134799500D01*
X97868872Y-134799500D01*
X97637772Y-134829926D01*
X97608884Y-134833730D01*
X97355581Y-134901602D01*
X97355571Y-134901605D01*
X97113309Y-135001953D01*
X97113299Y-135001958D01*
X96886196Y-135133075D01*
X96678148Y-135292718D01*
X96492718Y-135478148D01*
X96333075Y-135686196D01*
X96201958Y-135913299D01*
X96201953Y-135913309D01*
X96101605Y-136155571D01*
X96101602Y-136155581D01*
X96033730Y-136408885D01*
X95999500Y-136668872D01*
X94500500Y-136668872D01*
X94500500Y-124428336D01*
X94824500Y-124428336D01*
X94824500Y-124731663D01*
X94858457Y-125033048D01*
X94858460Y-125033062D01*
X94925953Y-125328771D01*
X94925957Y-125328783D01*
X95026133Y-125615068D01*
X95157733Y-125888338D01*
X95157735Y-125888341D01*
X95319108Y-126145164D01*
X95404981Y-126252845D01*
X95505985Y-126379501D01*
X95508221Y-126382304D01*
X95722696Y-126596779D01*
X95959836Y-126785892D01*
X96216659Y-126947265D01*
X96489935Y-127078868D01*
X96704951Y-127154105D01*
X96776216Y-127179042D01*
X96776228Y-127179046D01*
X97071937Y-127246540D01*
X97071946Y-127246541D01*
X97071951Y-127246542D01*
X97272874Y-127269180D01*
X97373337Y-127280499D01*
X97373340Y-127280500D01*
X97373343Y-127280500D01*
X97676660Y-127280500D01*
X97676661Y-127280499D01*
X97830694Y-127263144D01*
X97978048Y-127246542D01*
X97978051Y-127246541D01*
X97978063Y-127246540D01*
X98273772Y-127179046D01*
X98560065Y-127078868D01*
X98833341Y-126947265D01*
X99090164Y-126785892D01*
X99327304Y-126596779D01*
X99541779Y-126382304D01*
X99730892Y-126145164D01*
X99892265Y-125888341D01*
X100023868Y-125615065D01*
X100124046Y-125328772D01*
X100191540Y-125033063D01*
X100202831Y-124932857D01*
X100225499Y-124731663D01*
X100225500Y-124731659D01*
X100225500Y-124428340D01*
X100225499Y-124428336D01*
X100191542Y-124126951D01*
X100191541Y-124126946D01*
X100191540Y-124126937D01*
X100149321Y-123941966D01*
X103484500Y-123941966D01*
X103484500Y-126058028D01*
X103484501Y-126058034D01*
X103495113Y-126177415D01*
X103551089Y-126373045D01*
X103551090Y-126373048D01*
X103551091Y-126373049D01*
X103645302Y-126553407D01*
X103660324Y-126571830D01*
X103773890Y-126711109D01*
X103936467Y-126843672D01*
X103935103Y-126845344D01*
X103973869Y-126891116D01*
X103984500Y-126941351D01*
X103984500Y-127290255D01*
X104021446Y-127523526D01*
X104094433Y-127748154D01*
X104201657Y-127958592D01*
X104340484Y-128149669D01*
X107862181Y-131671366D01*
X107895666Y-131732689D01*
X107898500Y-131759047D01*
X107898500Y-138289178D01*
X107935446Y-138522449D01*
X108008433Y-138747077D01*
X108035654Y-138800500D01*
X108115657Y-138957515D01*
X108254483Y-139148591D01*
X109403402Y-140297510D01*
X109570409Y-140464517D01*
X109761486Y-140603343D01*
X109803017Y-140624504D01*
X109971922Y-140710566D01*
X109971924Y-140710566D01*
X109971927Y-140710568D01*
X110092331Y-140749689D01*
X110196550Y-140783553D01*
X110241650Y-140790696D01*
X110298974Y-140799775D01*
X110362109Y-140829704D01*
X110399041Y-140889015D01*
X110402867Y-140935502D01*
X110400000Y-140962169D01*
X110400000Y-141610000D01*
X111316988Y-141610000D01*
X111284075Y-141667007D01*
X111250000Y-141794174D01*
X111250000Y-141925826D01*
X111284075Y-142052993D01*
X111316988Y-142110000D01*
X110400000Y-142110000D01*
X110400000Y-142757844D01*
X110406401Y-142817372D01*
X110406403Y-142817379D01*
X110456645Y-142952086D01*
X110456649Y-142952093D01*
X110542809Y-143067187D01*
X110542812Y-143067190D01*
X110657906Y-143153350D01*
X110657913Y-143153354D01*
X110792620Y-143203596D01*
X110792627Y-143203598D01*
X110852155Y-143209999D01*
X110852172Y-143210000D01*
X111500000Y-143210000D01*
X111500000Y-142293012D01*
X111557007Y-142325925D01*
X111684174Y-142360000D01*
X111815826Y-142360000D01*
X111942993Y-142325925D01*
X112000000Y-142293012D01*
X112000000Y-143210000D01*
X112647828Y-143210000D01*
X112647844Y-143209999D01*
X112707372Y-143203598D01*
X112707379Y-143203596D01*
X112842086Y-143153354D01*
X112842093Y-143153350D01*
X112957187Y-143067190D01*
X112957190Y-143067187D01*
X113043350Y-142952093D01*
X113043354Y-142952086D01*
X113093596Y-142817379D01*
X113093598Y-142817372D01*
X113099999Y-142757844D01*
X113100000Y-142757827D01*
X113100000Y-142110000D01*
X112183012Y-142110000D01*
X112215925Y-142052993D01*
X112250000Y-141925826D01*
X112250000Y-141794174D01*
X112215925Y-141667007D01*
X112183012Y-141610000D01*
X113100000Y-141610000D01*
X113100000Y-140962172D01*
X113099999Y-140962158D01*
X113099526Y-140957757D01*
X113111930Y-140888997D01*
X113159540Y-140837859D01*
X113222815Y-140820500D01*
X116107111Y-140820500D01*
X116174150Y-140840185D01*
X116194792Y-140856819D01*
X119084181Y-143746208D01*
X119117666Y-143807531D01*
X119120500Y-143833889D01*
X119120500Y-144562837D01*
X119120501Y-144562853D01*
X119152829Y-144808410D01*
X119216938Y-145047667D01*
X119311720Y-145276491D01*
X119311723Y-145276498D01*
X119435567Y-145491002D01*
X119435572Y-145491008D01*
X119435573Y-145491010D01*
X119586349Y-145687505D01*
X119586355Y-145687512D01*
X119761487Y-145862644D01*
X119761494Y-145862650D01*
X119792963Y-145886797D01*
X119957998Y-146013433D01*
X120172502Y-146137277D01*
X120401337Y-146232063D01*
X120640586Y-146296170D01*
X120886156Y-146328500D01*
X120886163Y-146328500D01*
X121133837Y-146328500D01*
X121133844Y-146328500D01*
X121379414Y-146296170D01*
X121618663Y-146232063D01*
X121847498Y-146137277D01*
X122062002Y-146013433D01*
X122258507Y-145862649D01*
X122433649Y-145687507D01*
X122528943Y-145563316D01*
X122585369Y-145522115D01*
X122655115Y-145517960D01*
X122700203Y-145538486D01*
X122822001Y-145626976D01*
X123016808Y-145726237D01*
X123016811Y-145726238D01*
X123224739Y-145793797D01*
X123299999Y-145805717D01*
X123300000Y-145805717D01*
X123300000Y-143865686D01*
X123304394Y-143870080D01*
X123395606Y-143922741D01*
X123497339Y-143950000D01*
X123602661Y-143950000D01*
X123704394Y-143922741D01*
X123795606Y-143870080D01*
X123800000Y-143865686D01*
X123800000Y-145805717D01*
X123875258Y-145793797D01*
X123875261Y-145793797D01*
X124083188Y-145726238D01*
X124083191Y-145726237D01*
X124277995Y-145626978D01*
X124399794Y-145538486D01*
X124465600Y-145515006D01*
X124533654Y-145530831D01*
X124571055Y-145563317D01*
X124666347Y-145687503D01*
X124666355Y-145687512D01*
X124841487Y-145862644D01*
X124841494Y-145862650D01*
X124872963Y-145886797D01*
X125037998Y-146013433D01*
X125252502Y-146137277D01*
X125481337Y-146232063D01*
X125649824Y-146277208D01*
X125705411Y-146309302D01*
X127040626Y-147644517D01*
X127231702Y-147783343D01*
X127425148Y-147881908D01*
X127425147Y-147881908D01*
X127430956Y-147884867D01*
X127442144Y-147890568D01*
X127595577Y-147940421D01*
X127666767Y-147963553D01*
X127900039Y-148000500D01*
X127900044Y-148000500D01*
X129327111Y-148000500D01*
X129394150Y-148020185D01*
X129414792Y-148036819D01*
X130522490Y-149144517D01*
X130713566Y-149283343D01*
X130812992Y-149334003D01*
X130924003Y-149390566D01*
X130924005Y-149390566D01*
X130924008Y-149390568D01*
X131044412Y-149429689D01*
X131148631Y-149463553D01*
X131381903Y-149500500D01*
X131381908Y-149500500D01*
X141118097Y-149500500D01*
X141351368Y-149463553D01*
X141575992Y-149390568D01*
X141786434Y-149283343D01*
X141977510Y-149144517D01*
X143644517Y-147477510D01*
X143783343Y-147286434D01*
X143890568Y-147075992D01*
X143907952Y-147022490D01*
X143963553Y-146851368D01*
X144000500Y-146618097D01*
X144000500Y-142931947D01*
X145250000Y-142931947D01*
X145250000Y-143168052D01*
X145286934Y-143401247D01*
X145359897Y-143625802D01*
X145467087Y-143836174D01*
X145527338Y-143919104D01*
X145527340Y-143919105D01*
X146226212Y-143220233D01*
X146237482Y-143262292D01*
X146309890Y-143387708D01*
X146412292Y-143490110D01*
X146537708Y-143562518D01*
X146579765Y-143573787D01*
X145880893Y-144272658D01*
X145963828Y-144332914D01*
X146174197Y-144440102D01*
X146398752Y-144513065D01*
X146398751Y-144513065D01*
X146631948Y-144550000D01*
X146868052Y-144550000D01*
X147101247Y-144513065D01*
X147325802Y-144440102D01*
X147536163Y-144332918D01*
X147536169Y-144332914D01*
X147619104Y-144272658D01*
X147619105Y-144272658D01*
X146920233Y-143573787D01*
X146962292Y-143562518D01*
X147087708Y-143490110D01*
X147190110Y-143387708D01*
X147262518Y-143262292D01*
X147273787Y-143220234D01*
X147972658Y-143919105D01*
X147972658Y-143919104D01*
X148032914Y-143836169D01*
X148032918Y-143836163D01*
X148140102Y-143625802D01*
X148213065Y-143401247D01*
X148250000Y-143168052D01*
X148250000Y-142931947D01*
X149750000Y-142931947D01*
X149750000Y-143168052D01*
X149786934Y-143401247D01*
X149859897Y-143625802D01*
X149967087Y-143836174D01*
X150027338Y-143919104D01*
X150027340Y-143919105D01*
X150726212Y-143220233D01*
X150737482Y-143262292D01*
X150809890Y-143387708D01*
X150912292Y-143490110D01*
X151037708Y-143562518D01*
X151079765Y-143573787D01*
X150380893Y-144272658D01*
X150463828Y-144332914D01*
X150674197Y-144440102D01*
X150898752Y-144513065D01*
X150898751Y-144513065D01*
X151131948Y-144550000D01*
X151368052Y-144550000D01*
X151601247Y-144513065D01*
X151825802Y-144440102D01*
X152036163Y-144332918D01*
X152036169Y-144332914D01*
X152119104Y-144272658D01*
X152119105Y-144272658D01*
X151420233Y-143573787D01*
X151462292Y-143562518D01*
X151587708Y-143490110D01*
X151690110Y-143387708D01*
X151762518Y-143262292D01*
X151773787Y-143220233D01*
X152472658Y-143919105D01*
X152472658Y-143919104D01*
X152532914Y-143836169D01*
X152532918Y-143836163D01*
X152640102Y-143625802D01*
X152713065Y-143401247D01*
X152750000Y-143168052D01*
X152750000Y-142931947D01*
X152713065Y-142698752D01*
X152640102Y-142474197D01*
X152532914Y-142263828D01*
X152472658Y-142180894D01*
X152472658Y-142180893D01*
X151773787Y-142879765D01*
X151762518Y-142837708D01*
X151690110Y-142712292D01*
X151587708Y-142609890D01*
X151462292Y-142537482D01*
X151420234Y-142526212D01*
X152119105Y-141827340D01*
X152119104Y-141827338D01*
X152036174Y-141767087D01*
X151825802Y-141659897D01*
X151601247Y-141586934D01*
X151601248Y-141586934D01*
X151368052Y-141550000D01*
X151131948Y-141550000D01*
X150898752Y-141586934D01*
X150674197Y-141659897D01*
X150463830Y-141767084D01*
X150380894Y-141827340D01*
X151079766Y-142526212D01*
X151037708Y-142537482D01*
X150912292Y-142609890D01*
X150809890Y-142712292D01*
X150737482Y-142837708D01*
X150726212Y-142879766D01*
X150027340Y-142180894D01*
X149967084Y-142263830D01*
X149859897Y-142474197D01*
X149786934Y-142698752D01*
X149750000Y-142931947D01*
X148250000Y-142931947D01*
X148213065Y-142698752D01*
X148140102Y-142474197D01*
X148032914Y-142263828D01*
X147972658Y-142180894D01*
X147972658Y-142180893D01*
X147273787Y-142879765D01*
X147262518Y-142837708D01*
X147190110Y-142712292D01*
X147087708Y-142609890D01*
X146962292Y-142537482D01*
X146920234Y-142526212D01*
X147619105Y-141827340D01*
X147619104Y-141827339D01*
X147536174Y-141767087D01*
X147325802Y-141659897D01*
X147101247Y-141586934D01*
X147101248Y-141586934D01*
X146868052Y-141550000D01*
X146631948Y-141550000D01*
X146398752Y-141586934D01*
X146174197Y-141659897D01*
X145963830Y-141767084D01*
X145880894Y-141827340D01*
X146579766Y-142526212D01*
X146537708Y-142537482D01*
X146412292Y-142609890D01*
X146309890Y-142712292D01*
X146237482Y-142837708D01*
X146226212Y-142879766D01*
X145527340Y-142180894D01*
X145467084Y-142263830D01*
X145359897Y-142474197D01*
X145286934Y-142698752D01*
X145250000Y-142931947D01*
X144000500Y-142931947D01*
X144000500Y-141881911D01*
X144000498Y-141881893D01*
X143963553Y-141648631D01*
X143890566Y-141424003D01*
X143802236Y-141250646D01*
X143783343Y-141213566D01*
X143644517Y-141022490D01*
X142536819Y-139914792D01*
X142503334Y-139853469D01*
X142500500Y-139827111D01*
X142500500Y-136418872D01*
X144749500Y-136418872D01*
X144749500Y-136681127D01*
X144776123Y-136883339D01*
X144783730Y-136941116D01*
X144850717Y-137191116D01*
X144851602Y-137194418D01*
X144851605Y-137194428D01*
X144951953Y-137436690D01*
X144951958Y-137436700D01*
X145083075Y-137663803D01*
X145242718Y-137871851D01*
X145242726Y-137871860D01*
X145428140Y-138057274D01*
X145428148Y-138057281D01*
X145428149Y-138057282D01*
X145476554Y-138094424D01*
X145636196Y-138216924D01*
X145863299Y-138348041D01*
X145863309Y-138348046D01*
X146105571Y-138448394D01*
X146105581Y-138448398D01*
X146358884Y-138516270D01*
X146618880Y-138550500D01*
X146618887Y-138550500D01*
X146881113Y-138550500D01*
X146881120Y-138550500D01*
X147141116Y-138516270D01*
X147394419Y-138448398D01*
X147636697Y-138348043D01*
X147863803Y-138216924D01*
X148047295Y-138076124D01*
X148112463Y-138050930D01*
X148122781Y-138050500D01*
X149877219Y-138050500D01*
X149944258Y-138070185D01*
X149952700Y-138076120D01*
X150012296Y-138121851D01*
X150136196Y-138216924D01*
X150363299Y-138348041D01*
X150363309Y-138348046D01*
X150605571Y-138448394D01*
X150605581Y-138448398D01*
X150858884Y-138516270D01*
X151118880Y-138550500D01*
X151118887Y-138550500D01*
X151381113Y-138550500D01*
X151381120Y-138550500D01*
X151641116Y-138516270D01*
X151894419Y-138448398D01*
X152136697Y-138348043D01*
X152363803Y-138216924D01*
X152571851Y-138057282D01*
X152571855Y-138057277D01*
X152571860Y-138057274D01*
X152757274Y-137871860D01*
X152757277Y-137871855D01*
X152757282Y-137871851D01*
X152916924Y-137663803D01*
X153048043Y-137436697D01*
X153148398Y-137194419D01*
X153216270Y-136941116D01*
X153250500Y-136681120D01*
X153250500Y-136418880D01*
X153216270Y-136158884D01*
X153148398Y-135905581D01*
X153148394Y-135905571D01*
X153048046Y-135663309D01*
X153048041Y-135663299D01*
X152916924Y-135436196D01*
X152757281Y-135228148D01*
X152757274Y-135228140D01*
X152571860Y-135042726D01*
X152571851Y-135042718D01*
X152363803Y-134883075D01*
X152136700Y-134751958D01*
X152136690Y-134751953D01*
X151894428Y-134651605D01*
X151894421Y-134651603D01*
X151894419Y-134651602D01*
X151641116Y-134583730D01*
X151582676Y-134576036D01*
X151381127Y-134549500D01*
X151381120Y-134549500D01*
X151118880Y-134549500D01*
X151118872Y-134549500D01*
X150890383Y-134579583D01*
X150858884Y-134583730D01*
X150605581Y-134651602D01*
X150605571Y-134651605D01*
X150363309Y-134751953D01*
X150363299Y-134751958D01*
X150136196Y-134883075D01*
X150013448Y-134977265D01*
X149952704Y-135023875D01*
X149887537Y-135049070D01*
X149877219Y-135049500D01*
X148122781Y-135049500D01*
X148055742Y-135029815D01*
X148047299Y-135023879D01*
X147986552Y-134977265D01*
X147863803Y-134883075D01*
X147636700Y-134751958D01*
X147636690Y-134751953D01*
X147394428Y-134651605D01*
X147394421Y-134651603D01*
X147394419Y-134651602D01*
X147141116Y-134583730D01*
X147082676Y-134576036D01*
X146881127Y-134549500D01*
X146881120Y-134549500D01*
X146618880Y-134549500D01*
X146618872Y-134549500D01*
X146390383Y-134579583D01*
X146358884Y-134583730D01*
X146105581Y-134651602D01*
X146105571Y-134651605D01*
X145863309Y-134751953D01*
X145863299Y-134751958D01*
X145636196Y-134883075D01*
X145428148Y-135042718D01*
X145242718Y-135228148D01*
X145083075Y-135436196D01*
X144951958Y-135663299D01*
X144951953Y-135663309D01*
X144851605Y-135905571D01*
X144851602Y-135905581D01*
X144783730Y-136158885D01*
X144749500Y-136418872D01*
X142500500Y-136418872D01*
X142500500Y-131315004D01*
X142479005Y-131179299D01*
X142463553Y-131081734D01*
X142463551Y-131081730D01*
X142463551Y-131081725D01*
X142455506Y-131056967D01*
X142455503Y-131056957D01*
X142390566Y-130857105D01*
X142283342Y-130646668D01*
X142251775Y-130603220D01*
X142144517Y-130455592D01*
X141977510Y-130288585D01*
X140041819Y-128352894D01*
X140008334Y-128291571D01*
X140005500Y-128265213D01*
X140005500Y-127796102D01*
X140025185Y-127729063D01*
X140077989Y-127683308D01*
X140147147Y-127673364D01*
X140210703Y-127702389D01*
X140217181Y-127708421D01*
X141933277Y-129424517D01*
X142124353Y-129563343D01*
X142162069Y-129582560D01*
X142240662Y-129622605D01*
X142334790Y-129670566D01*
X142334792Y-129670566D01*
X142334795Y-129670568D01*
X142413208Y-129696046D01*
X142559418Y-129743553D01*
X142792690Y-129780500D01*
X142792695Y-129780500D01*
X151226000Y-129780500D01*
X151293039Y-129800185D01*
X151338794Y-129852989D01*
X151350000Y-129904500D01*
X151350000Y-130570000D01*
X152374722Y-130570000D01*
X152330667Y-130646306D01*
X152300000Y-130760756D01*
X152300000Y-130879244D01*
X152330667Y-130993694D01*
X152374722Y-131070000D01*
X151350000Y-131070000D01*
X151350000Y-131767844D01*
X151356401Y-131827372D01*
X151356403Y-131827379D01*
X151406645Y-131962086D01*
X151406649Y-131962093D01*
X151492809Y-132077187D01*
X151492812Y-132077190D01*
X151607906Y-132163350D01*
X151607913Y-132163354D01*
X151742620Y-132213596D01*
X151742627Y-132213598D01*
X151802155Y-132219999D01*
X151802172Y-132220000D01*
X152500000Y-132220000D01*
X152500000Y-131195277D01*
X152576306Y-131239333D01*
X152690756Y-131270000D01*
X152809244Y-131270000D01*
X152923694Y-131239333D01*
X153000000Y-131195277D01*
X153000000Y-132220000D01*
X153697828Y-132220000D01*
X153697844Y-132219999D01*
X153757372Y-132213598D01*
X153757379Y-132213596D01*
X153892086Y-132163354D01*
X153892093Y-132163350D01*
X154007187Y-132077190D01*
X154007190Y-132077187D01*
X154093350Y-131962093D01*
X154093354Y-131962086D01*
X154143596Y-131827379D01*
X154143598Y-131827372D01*
X154149999Y-131767844D01*
X154150000Y-131767827D01*
X154150000Y-131070000D01*
X153125278Y-131070000D01*
X153169333Y-130993694D01*
X153200000Y-130879244D01*
X153200000Y-130760756D01*
X153169333Y-130646306D01*
X153125278Y-130570000D01*
X154150000Y-130570000D01*
X154150000Y-129872172D01*
X154149999Y-129872155D01*
X154143598Y-129812627D01*
X154143596Y-129812619D01*
X154106654Y-129713575D01*
X154101669Y-129643883D01*
X154135151Y-129582562D01*
X154181938Y-129535776D01*
X154333599Y-129338127D01*
X154458164Y-129122373D01*
X154553502Y-128892207D01*
X154617982Y-128651565D01*
X154650500Y-128404565D01*
X154650500Y-128155435D01*
X154617982Y-127908435D01*
X154553502Y-127667793D01*
X154493745Y-127523526D01*
X154458169Y-127437638D01*
X154458162Y-127437623D01*
X154333599Y-127221873D01*
X154181939Y-127024225D01*
X154181933Y-127024218D01*
X154005781Y-126848066D01*
X154005774Y-126848060D01*
X153808126Y-126696400D01*
X153592376Y-126571837D01*
X153592361Y-126571830D01*
X153362207Y-126476498D01*
X153151791Y-126420117D01*
X153121565Y-126412018D01*
X153121564Y-126412017D01*
X153121561Y-126412017D01*
X152874575Y-126379501D01*
X152874570Y-126379500D01*
X152874565Y-126379500D01*
X152625435Y-126379500D01*
X152625429Y-126379500D01*
X152625424Y-126379501D01*
X152378438Y-126412017D01*
X152137792Y-126476498D01*
X151907638Y-126571830D01*
X151907623Y-126571837D01*
X151691877Y-126696397D01*
X151668348Y-126714452D01*
X151616968Y-126753876D01*
X151551801Y-126779070D01*
X151541484Y-126779500D01*
X146393945Y-126779500D01*
X146326906Y-126759815D01*
X146281151Y-126707011D01*
X146271207Y-126637853D01*
X146300232Y-126574297D01*
X146306264Y-126567819D01*
X146397585Y-126476498D01*
X146491779Y-126382304D01*
X146680892Y-126145164D01*
X146842265Y-125888341D01*
X146973868Y-125615065D01*
X147074046Y-125328772D01*
X147141540Y-125033063D01*
X147152831Y-124932857D01*
X147175499Y-124731663D01*
X147175500Y-124731659D01*
X147175500Y-124428340D01*
X147175499Y-124428336D01*
X147141542Y-124126951D01*
X147141541Y-124126946D01*
X147141540Y-124126937D01*
X147074046Y-123831228D01*
X146973868Y-123544935D01*
X146842265Y-123271659D01*
X146680892Y-123014836D01*
X146491779Y-122777696D01*
X146277304Y-122563221D01*
X146040164Y-122374108D01*
X145783341Y-122212735D01*
X145783338Y-122212733D01*
X145510068Y-122081133D01*
X145223783Y-121980957D01*
X145223771Y-121980953D01*
X144995556Y-121928864D01*
X144928063Y-121913460D01*
X144928060Y-121913459D01*
X144928048Y-121913457D01*
X144626663Y-121879500D01*
X144626657Y-121879500D01*
X144323343Y-121879500D01*
X144323336Y-121879500D01*
X144021951Y-121913457D01*
X144021937Y-121913460D01*
X143726228Y-121980953D01*
X143726216Y-121980957D01*
X143439931Y-122081133D01*
X143166661Y-122212733D01*
X142909837Y-122374107D01*
X142672696Y-122563220D01*
X142458220Y-122777696D01*
X142269105Y-123014839D01*
X142156559Y-123193953D01*
X142104224Y-123240243D01*
X142035171Y-123250891D01*
X141989567Y-123235368D01*
X141961735Y-123219299D01*
X141931697Y-123201957D01*
X141931695Y-123201956D01*
X141931690Y-123201953D01*
X141689428Y-123101605D01*
X141689421Y-123101603D01*
X141689419Y-123101602D01*
X141436116Y-123033730D01*
X141378339Y-123026123D01*
X141176127Y-122999500D01*
X141176120Y-122999500D01*
X140913880Y-122999500D01*
X140913872Y-122999500D01*
X140682772Y-123029926D01*
X140653884Y-123033730D01*
X140533118Y-123066089D01*
X140400581Y-123101602D01*
X140400571Y-123101605D01*
X140158309Y-123201953D01*
X140158299Y-123201958D01*
X139931197Y-123333075D01*
X139850486Y-123395007D01*
X139785317Y-123420201D01*
X139716872Y-123406162D01*
X139699514Y-123395007D01*
X139618802Y-123333075D01*
X139391700Y-123201958D01*
X139391690Y-123201953D01*
X139149428Y-123101605D01*
X139149421Y-123101603D01*
X139149419Y-123101602D01*
X138896116Y-123033730D01*
X138838339Y-123026123D01*
X138636127Y-122999500D01*
X138636120Y-122999500D01*
X138373880Y-122999500D01*
X138373872Y-122999500D01*
X138142772Y-123029926D01*
X138113884Y-123033730D01*
X137993118Y-123066089D01*
X137860581Y-123101602D01*
X137860571Y-123101605D01*
X137618309Y-123201953D01*
X137618299Y-123201958D01*
X137391197Y-123333075D01*
X137310486Y-123395007D01*
X137245317Y-123420201D01*
X137176872Y-123406162D01*
X137159514Y-123395007D01*
X137078802Y-123333075D01*
X136851700Y-123201958D01*
X136851690Y-123201953D01*
X136609428Y-123101605D01*
X136609421Y-123101603D01*
X136609419Y-123101602D01*
X136356116Y-123033730D01*
X136298339Y-123026123D01*
X136096127Y-122999500D01*
X136096120Y-122999500D01*
X135833880Y-122999500D01*
X135833872Y-122999500D01*
X135602772Y-123029926D01*
X135573884Y-123033730D01*
X135453118Y-123066089D01*
X135320581Y-123101602D01*
X135320571Y-123101605D01*
X135078309Y-123201953D01*
X135078299Y-123201958D01*
X134851197Y-123333075D01*
X134770486Y-123395007D01*
X134705317Y-123420201D01*
X134636872Y-123406162D01*
X134619514Y-123395007D01*
X134538802Y-123333075D01*
X134311700Y-123201958D01*
X134311690Y-123201953D01*
X134069428Y-123101605D01*
X134069421Y-123101603D01*
X134069419Y-123101602D01*
X133816116Y-123033730D01*
X133758339Y-123026123D01*
X133556127Y-122999500D01*
X133556120Y-122999500D01*
X133293880Y-122999500D01*
X133293872Y-122999500D01*
X133062772Y-123029926D01*
X133033884Y-123033730D01*
X132913118Y-123066089D01*
X132780581Y-123101602D01*
X132780571Y-123101605D01*
X132538309Y-123201953D01*
X132538299Y-123201958D01*
X132311197Y-123333075D01*
X132230486Y-123395007D01*
X132165317Y-123420201D01*
X132096872Y-123406162D01*
X132079514Y-123395007D01*
X131998802Y-123333075D01*
X131771700Y-123201958D01*
X131771690Y-123201953D01*
X131529428Y-123101605D01*
X131529421Y-123101603D01*
X131529419Y-123101602D01*
X131276116Y-123033730D01*
X131218339Y-123026123D01*
X131016127Y-122999500D01*
X131016120Y-122999500D01*
X130753880Y-122999500D01*
X130753872Y-122999500D01*
X130522772Y-123029926D01*
X130493884Y-123033730D01*
X130373118Y-123066089D01*
X130240581Y-123101602D01*
X130240571Y-123101605D01*
X129998309Y-123201953D01*
X129998299Y-123201958D01*
X129771197Y-123333075D01*
X129690486Y-123395007D01*
X129625317Y-123420201D01*
X129556872Y-123406162D01*
X129539514Y-123395007D01*
X129458802Y-123333075D01*
X129231700Y-123201958D01*
X129231690Y-123201953D01*
X128989428Y-123101605D01*
X128989421Y-123101603D01*
X128989419Y-123101602D01*
X128736116Y-123033730D01*
X128678339Y-123026123D01*
X128476127Y-122999500D01*
X128476120Y-122999500D01*
X128213880Y-122999500D01*
X128213872Y-122999500D01*
X127982772Y-123029926D01*
X127953884Y-123033730D01*
X127833118Y-123066089D01*
X127700581Y-123101602D01*
X127700571Y-123101605D01*
X127458309Y-123201953D01*
X127458299Y-123201958D01*
X127231197Y-123333075D01*
X127150486Y-123395007D01*
X127085317Y-123420201D01*
X127016872Y-123406162D01*
X126999514Y-123395007D01*
X126918802Y-123333075D01*
X126691700Y-123201958D01*
X126691690Y-123201953D01*
X126449428Y-123101605D01*
X126449421Y-123101603D01*
X126449419Y-123101602D01*
X126196116Y-123033730D01*
X126138339Y-123026123D01*
X125936127Y-122999500D01*
X125936120Y-122999500D01*
X125673880Y-122999500D01*
X125673872Y-122999500D01*
X125442772Y-123029926D01*
X125413884Y-123033730D01*
X125293118Y-123066089D01*
X125160581Y-123101602D01*
X125160571Y-123101605D01*
X124918309Y-123201953D01*
X124918299Y-123201958D01*
X124691197Y-123333075D01*
X124610486Y-123395007D01*
X124545317Y-123420201D01*
X124476872Y-123406162D01*
X124459514Y-123395007D01*
X124378802Y-123333075D01*
X124151700Y-123201958D01*
X124151690Y-123201953D01*
X123909428Y-123101605D01*
X123909421Y-123101603D01*
X123909419Y-123101602D01*
X123656116Y-123033730D01*
X123598339Y-123026123D01*
X123396127Y-122999500D01*
X123396120Y-122999500D01*
X123133880Y-122999500D01*
X123133872Y-122999500D01*
X122902772Y-123029926D01*
X122873884Y-123033730D01*
X122753118Y-123066089D01*
X122620581Y-123101602D01*
X122620571Y-123101605D01*
X122378309Y-123201953D01*
X122378299Y-123201958D01*
X122151197Y-123333075D01*
X122070486Y-123395007D01*
X122005317Y-123420201D01*
X121936872Y-123406162D01*
X121919514Y-123395007D01*
X121838802Y-123333075D01*
X121611700Y-123201958D01*
X121611690Y-123201953D01*
X121369428Y-123101605D01*
X121369421Y-123101603D01*
X121369419Y-123101602D01*
X121116116Y-123033730D01*
X121058339Y-123026123D01*
X120856127Y-122999500D01*
X120856120Y-122999500D01*
X120593880Y-122999500D01*
X120593872Y-122999500D01*
X120362772Y-123029926D01*
X120333884Y-123033730D01*
X120213118Y-123066089D01*
X120080581Y-123101602D01*
X120080571Y-123101605D01*
X119838309Y-123201953D01*
X119838299Y-123201958D01*
X119611197Y-123333075D01*
X119530486Y-123395007D01*
X119465317Y-123420201D01*
X119396872Y-123406162D01*
X119379514Y-123395007D01*
X119298802Y-123333075D01*
X119071700Y-123201958D01*
X119071690Y-123201953D01*
X118829428Y-123101605D01*
X118829421Y-123101603D01*
X118829419Y-123101602D01*
X118576116Y-123033730D01*
X118518339Y-123026123D01*
X118316127Y-122999500D01*
X118316120Y-122999500D01*
X118053880Y-122999500D01*
X118053872Y-122999500D01*
X117822772Y-123029926D01*
X117793884Y-123033730D01*
X117673118Y-123066089D01*
X117540581Y-123101602D01*
X117540571Y-123101605D01*
X117298309Y-123201953D01*
X117298299Y-123201958D01*
X117071197Y-123333075D01*
X116990486Y-123395007D01*
X116925317Y-123420201D01*
X116856872Y-123406162D01*
X116839514Y-123395007D01*
X116758802Y-123333075D01*
X116531700Y-123201958D01*
X116531690Y-123201953D01*
X116289428Y-123101605D01*
X116289421Y-123101603D01*
X116289419Y-123101602D01*
X116036116Y-123033730D01*
X115978339Y-123026123D01*
X115776127Y-122999500D01*
X115776120Y-122999500D01*
X115513880Y-122999500D01*
X115513872Y-122999500D01*
X115282772Y-123029926D01*
X115253884Y-123033730D01*
X115133118Y-123066089D01*
X115000581Y-123101602D01*
X115000571Y-123101605D01*
X114758309Y-123201953D01*
X114758299Y-123201958D01*
X114531197Y-123333075D01*
X114450486Y-123395007D01*
X114385317Y-123420201D01*
X114316872Y-123406162D01*
X114299514Y-123395007D01*
X114218802Y-123333075D01*
X113991700Y-123201958D01*
X113991690Y-123201953D01*
X113749428Y-123101605D01*
X113749421Y-123101603D01*
X113749419Y-123101602D01*
X113496116Y-123033730D01*
X113438339Y-123026123D01*
X113236127Y-122999500D01*
X113236120Y-122999500D01*
X112973880Y-122999500D01*
X112973872Y-122999500D01*
X112742772Y-123029926D01*
X112713884Y-123033730D01*
X112593118Y-123066089D01*
X112460581Y-123101602D01*
X112460571Y-123101605D01*
X112218309Y-123201953D01*
X112218299Y-123201958D01*
X111991197Y-123333075D01*
X111910486Y-123395007D01*
X111845317Y-123420201D01*
X111776872Y-123406162D01*
X111759514Y-123395007D01*
X111678802Y-123333075D01*
X111451700Y-123201958D01*
X111451690Y-123201953D01*
X111209428Y-123101605D01*
X111209421Y-123101603D01*
X111209419Y-123101602D01*
X110956116Y-123033730D01*
X110898339Y-123026123D01*
X110696127Y-122999500D01*
X110696120Y-122999500D01*
X110433880Y-122999500D01*
X110433872Y-122999500D01*
X110202772Y-123029926D01*
X110173884Y-123033730D01*
X110053118Y-123066089D01*
X109920581Y-123101602D01*
X109920571Y-123101605D01*
X109678309Y-123201953D01*
X109678299Y-123201958D01*
X109451196Y-123333075D01*
X109243148Y-123492718D01*
X109057726Y-123678140D01*
X109057716Y-123678151D01*
X109023819Y-123722325D01*
X108967391Y-123763527D01*
X108897644Y-123767680D01*
X108852560Y-123747155D01*
X108811174Y-123717087D01*
X108600802Y-123609897D01*
X108376247Y-123536934D01*
X108376248Y-123536934D01*
X108143052Y-123500000D01*
X107906948Y-123500000D01*
X107673751Y-123536934D01*
X107515381Y-123588392D01*
X107445540Y-123590387D01*
X107385707Y-123554307D01*
X107367156Y-123527874D01*
X107324698Y-123446593D01*
X107282635Y-123395007D01*
X107196109Y-123288890D01*
X107038409Y-123160304D01*
X107038410Y-123160304D01*
X107038407Y-123160302D01*
X106858049Y-123066091D01*
X106858048Y-123066090D01*
X106858045Y-123066089D01*
X106740829Y-123032550D01*
X106662418Y-123010114D01*
X106662415Y-123010113D01*
X106662413Y-123010113D01*
X106596102Y-123004217D01*
X106543037Y-122999500D01*
X106543032Y-122999500D01*
X104426971Y-122999500D01*
X104426965Y-122999500D01*
X104426964Y-122999501D01*
X104415316Y-123000536D01*
X104307584Y-123010113D01*
X104111954Y-123066089D01*
X104043963Y-123101605D01*
X103931593Y-123160302D01*
X103931591Y-123160303D01*
X103931590Y-123160304D01*
X103773890Y-123288890D01*
X103645304Y-123446590D01*
X103645302Y-123446593D01*
X103598196Y-123536772D01*
X103551089Y-123626954D01*
X103495114Y-123822583D01*
X103495113Y-123822586D01*
X103484500Y-123941966D01*
X100149321Y-123941966D01*
X100124046Y-123831228D01*
X100023868Y-123544935D01*
X99892265Y-123271659D01*
X99730892Y-123014836D01*
X99541779Y-122777696D01*
X99327304Y-122563221D01*
X99090164Y-122374108D01*
X98833341Y-122212735D01*
X98833338Y-122212733D01*
X98560068Y-122081133D01*
X98273783Y-121980957D01*
X98273771Y-121980953D01*
X98045556Y-121928864D01*
X97978063Y-121913460D01*
X97978060Y-121913459D01*
X97978048Y-121913457D01*
X97676663Y-121879500D01*
X97676657Y-121879500D01*
X97373343Y-121879500D01*
X97373336Y-121879500D01*
X97071951Y-121913457D01*
X97071937Y-121913460D01*
X96776228Y-121980953D01*
X96776216Y-121980957D01*
X96489931Y-122081133D01*
X96216661Y-122212733D01*
X95959837Y-122374107D01*
X95722696Y-122563220D01*
X95508220Y-122777696D01*
X95319107Y-123014837D01*
X95157733Y-123271661D01*
X95026133Y-123544931D01*
X94925957Y-123831216D01*
X94925953Y-123831228D01*
X94858460Y-124126937D01*
X94858457Y-124126951D01*
X94824500Y-124428336D01*
X94500500Y-124428336D01*
X94500500Y-121210000D01*
X139985000Y-121210000D01*
X146475000Y-121210000D01*
X146475000Y-103520000D01*
X139985000Y-103520000D01*
X139985000Y-121210000D01*
X94500500Y-121210000D01*
X94500500Y-99918336D01*
X94824500Y-99918336D01*
X94824500Y-100221663D01*
X94858457Y-100523048D01*
X94858460Y-100523062D01*
X94925953Y-100818771D01*
X94925957Y-100818783D01*
X95026133Y-101105068D01*
X95157733Y-101378338D01*
X95183507Y-101419357D01*
X95319108Y-101635164D01*
X95508221Y-101872304D01*
X95722696Y-102086779D01*
X95959836Y-102275892D01*
X96216659Y-102437265D01*
X96489935Y-102568868D01*
X96704951Y-102644105D01*
X96776216Y-102669042D01*
X96776228Y-102669046D01*
X97071937Y-102736540D01*
X97071946Y-102736541D01*
X97071951Y-102736542D01*
X97272874Y-102759180D01*
X97373337Y-102770499D01*
X97373340Y-102770500D01*
X97373343Y-102770500D01*
X97676660Y-102770500D01*
X97676661Y-102770499D01*
X97830694Y-102753144D01*
X97978048Y-102736542D01*
X97978051Y-102736541D01*
X97978063Y-102736540D01*
X98273772Y-102669046D01*
X98560065Y-102568868D01*
X98833341Y-102437265D01*
X99090164Y-102275892D01*
X99327304Y-102086779D01*
X99541779Y-101872304D01*
X99730892Y-101635164D01*
X99892265Y-101378341D01*
X100023868Y-101105065D01*
X100124046Y-100818772D01*
X100191540Y-100523063D01*
X100195638Y-100486697D01*
X100225499Y-100221663D01*
X100225500Y-100221659D01*
X100225500Y-99918340D01*
X100225499Y-99918336D01*
X100224914Y-99913147D01*
X100214180Y-99817874D01*
X100191542Y-99616951D01*
X100191541Y-99616946D01*
X100191540Y-99616937D01*
X100157745Y-99468872D01*
X103484500Y-99468872D01*
X103484500Y-99731127D01*
X103493154Y-99796853D01*
X103518730Y-99991116D01*
X103550585Y-100110000D01*
X103586602Y-100244418D01*
X103586605Y-100244428D01*
X103686953Y-100486690D01*
X103686958Y-100486700D01*
X103818075Y-100713803D01*
X103977718Y-100921851D01*
X103977726Y-100921860D01*
X104163140Y-101107274D01*
X104163148Y-101107281D01*
X104371196Y-101266924D01*
X104598299Y-101398041D01*
X104598309Y-101398046D01*
X104840571Y-101498394D01*
X104840581Y-101498398D01*
X105093884Y-101566270D01*
X105353880Y-101600500D01*
X105353887Y-101600500D01*
X105616113Y-101600500D01*
X105616120Y-101600500D01*
X105876116Y-101566270D01*
X106129419Y-101498398D01*
X106371697Y-101398043D01*
X106598803Y-101266924D01*
X106806851Y-101107282D01*
X106806855Y-101107277D01*
X106806860Y-101107274D01*
X106992277Y-100921856D01*
X106992281Y-100921852D01*
X106992282Y-100921851D01*
X107026179Y-100877675D01*
X107082604Y-100836473D01*
X107152350Y-100832318D01*
X107197440Y-100852844D01*
X107238828Y-100882914D01*
X107449197Y-100990102D01*
X107673752Y-101063065D01*
X107673751Y-101063065D01*
X107906948Y-101100000D01*
X108143052Y-101100000D01*
X108376247Y-101063065D01*
X108600802Y-100990102D01*
X108811172Y-100882914D01*
X108852558Y-100852845D01*
X108918365Y-100829364D01*
X108986419Y-100845189D01*
X109023821Y-100877676D01*
X109057716Y-100921849D01*
X109057722Y-100921856D01*
X109243140Y-101107274D01*
X109243148Y-101107281D01*
X109451196Y-101266924D01*
X109678299Y-101398041D01*
X109678309Y-101398046D01*
X109920571Y-101498394D01*
X109920581Y-101498398D01*
X110173884Y-101566270D01*
X110433880Y-101600500D01*
X110433887Y-101600500D01*
X110696113Y-101600500D01*
X110696120Y-101600500D01*
X110956116Y-101566270D01*
X111209419Y-101498398D01*
X111451697Y-101398043D01*
X111678803Y-101266924D01*
X111759514Y-101204991D01*
X111824681Y-101179797D01*
X111893126Y-101193835D01*
X111910481Y-101204987D01*
X111991197Y-101266924D01*
X112127460Y-101345595D01*
X112218299Y-101398041D01*
X112218309Y-101398046D01*
X112460571Y-101498394D01*
X112460581Y-101498398D01*
X112713884Y-101566270D01*
X112973880Y-101600500D01*
X112973887Y-101600500D01*
X113236113Y-101600500D01*
X113236120Y-101600500D01*
X113496116Y-101566270D01*
X113749419Y-101498398D01*
X113991697Y-101398043D01*
X114218803Y-101266924D01*
X114299514Y-101204991D01*
X114364681Y-101179797D01*
X114433126Y-101193835D01*
X114450481Y-101204987D01*
X114531197Y-101266924D01*
X114667460Y-101345595D01*
X114758299Y-101398041D01*
X114758309Y-101398046D01*
X115000571Y-101498394D01*
X115000581Y-101498398D01*
X115253884Y-101566270D01*
X115513880Y-101600500D01*
X115513887Y-101600500D01*
X115776113Y-101600500D01*
X115776120Y-101600500D01*
X116036116Y-101566270D01*
X116289419Y-101498398D01*
X116531697Y-101398043D01*
X116758803Y-101266924D01*
X116839514Y-101204991D01*
X116904681Y-101179797D01*
X116973126Y-101193835D01*
X116990481Y-101204987D01*
X117071197Y-101266924D01*
X117207460Y-101345595D01*
X117298299Y-101398041D01*
X117298309Y-101398046D01*
X117540571Y-101498394D01*
X117540581Y-101498398D01*
X117793884Y-101566270D01*
X118053880Y-101600500D01*
X118053887Y-101600500D01*
X118316113Y-101600500D01*
X118316120Y-101600500D01*
X118576116Y-101566270D01*
X118829419Y-101498398D01*
X119071697Y-101398043D01*
X119298803Y-101266924D01*
X119379514Y-101204991D01*
X119444681Y-101179797D01*
X119513126Y-101193835D01*
X119530481Y-101204987D01*
X119611197Y-101266924D01*
X119747460Y-101345595D01*
X119838299Y-101398041D01*
X119838309Y-101398046D01*
X120080571Y-101498394D01*
X120080581Y-101498398D01*
X120333884Y-101566270D01*
X120593880Y-101600500D01*
X120593887Y-101600500D01*
X120856113Y-101600500D01*
X120856120Y-101600500D01*
X121116116Y-101566270D01*
X121369419Y-101498398D01*
X121611697Y-101398043D01*
X121838803Y-101266924D01*
X121919514Y-101204991D01*
X121984681Y-101179797D01*
X122053126Y-101193835D01*
X122070481Y-101204987D01*
X122151197Y-101266924D01*
X122287460Y-101345595D01*
X122378299Y-101398041D01*
X122378309Y-101398046D01*
X122620571Y-101498394D01*
X122620581Y-101498398D01*
X122873884Y-101566270D01*
X123133880Y-101600500D01*
X123133887Y-101600500D01*
X123396113Y-101600500D01*
X123396120Y-101600500D01*
X123656116Y-101566270D01*
X123909419Y-101498398D01*
X124151697Y-101398043D01*
X124378803Y-101266924D01*
X124459514Y-101204991D01*
X124524681Y-101179797D01*
X124593126Y-101193835D01*
X124610481Y-101204987D01*
X124691197Y-101266924D01*
X124827460Y-101345595D01*
X124918299Y-101398041D01*
X124918309Y-101398046D01*
X125160571Y-101498394D01*
X125160581Y-101498398D01*
X125413884Y-101566270D01*
X125673880Y-101600500D01*
X125673887Y-101600500D01*
X125936113Y-101600500D01*
X125936120Y-101600500D01*
X126196116Y-101566270D01*
X126449419Y-101498398D01*
X126691697Y-101398043D01*
X126918803Y-101266924D01*
X126999514Y-101204991D01*
X127064681Y-101179797D01*
X127133126Y-101193835D01*
X127150481Y-101204987D01*
X127231197Y-101266924D01*
X127367460Y-101345595D01*
X127458299Y-101398041D01*
X127458309Y-101398046D01*
X127700571Y-101498394D01*
X127700581Y-101498398D01*
X127953884Y-101566270D01*
X128213880Y-101600500D01*
X128213887Y-101600500D01*
X128476113Y-101600500D01*
X128476120Y-101600500D01*
X128736116Y-101566270D01*
X128989419Y-101498398D01*
X129231697Y-101398043D01*
X129458803Y-101266924D01*
X129539514Y-101204991D01*
X129604681Y-101179797D01*
X129673126Y-101193835D01*
X129690481Y-101204987D01*
X129771197Y-101266924D01*
X129907460Y-101345595D01*
X129998299Y-101398041D01*
X129998309Y-101398046D01*
X130240571Y-101498394D01*
X130240581Y-101498398D01*
X130493884Y-101566270D01*
X130753880Y-101600500D01*
X130753887Y-101600500D01*
X131016113Y-101600500D01*
X131016120Y-101600500D01*
X131276116Y-101566270D01*
X131529419Y-101498398D01*
X131771697Y-101398043D01*
X131998803Y-101266924D01*
X132079514Y-101204991D01*
X132144681Y-101179797D01*
X132213126Y-101193835D01*
X132230481Y-101204987D01*
X132311197Y-101266924D01*
X132447460Y-101345595D01*
X132538299Y-101398041D01*
X132538309Y-101398046D01*
X132780571Y-101498394D01*
X132780581Y-101498398D01*
X133033884Y-101566270D01*
X133293880Y-101600500D01*
X133293887Y-101600500D01*
X133556113Y-101600500D01*
X133556120Y-101600500D01*
X133816116Y-101566270D01*
X134069419Y-101498398D01*
X134311697Y-101398043D01*
X134538803Y-101266924D01*
X134619514Y-101204991D01*
X134684681Y-101179797D01*
X134753126Y-101193835D01*
X134770481Y-101204987D01*
X134851197Y-101266924D01*
X134987460Y-101345595D01*
X135078299Y-101398041D01*
X135078309Y-101398046D01*
X135320571Y-101498394D01*
X135320581Y-101498398D01*
X135573884Y-101566270D01*
X135833880Y-101600500D01*
X135833887Y-101600500D01*
X136096113Y-101600500D01*
X136096120Y-101600500D01*
X136356116Y-101566270D01*
X136609419Y-101498398D01*
X136851697Y-101398043D01*
X137078803Y-101266924D01*
X137159514Y-101204991D01*
X137224681Y-101179797D01*
X137293126Y-101193835D01*
X137310481Y-101204987D01*
X137391197Y-101266924D01*
X137527460Y-101345595D01*
X137618299Y-101398041D01*
X137618309Y-101398046D01*
X137860571Y-101498394D01*
X137860581Y-101498398D01*
X138113884Y-101566270D01*
X138373880Y-101600500D01*
X138373887Y-101600500D01*
X138636113Y-101600500D01*
X138636120Y-101600500D01*
X138896116Y-101566270D01*
X139149419Y-101498398D01*
X139391697Y-101398043D01*
X139618803Y-101266924D01*
X139699514Y-101204991D01*
X139764681Y-101179797D01*
X139833126Y-101193835D01*
X139850481Y-101204987D01*
X139931197Y-101266924D01*
X140067460Y-101345595D01*
X140158299Y-101398041D01*
X140158309Y-101398046D01*
X140400571Y-101498394D01*
X140400581Y-101498398D01*
X140653884Y-101566270D01*
X140913880Y-101600500D01*
X140913887Y-101600500D01*
X141176113Y-101600500D01*
X141176120Y-101600500D01*
X141436116Y-101566270D01*
X141689419Y-101498398D01*
X141931697Y-101398043D01*
X141931704Y-101398038D01*
X141931708Y-101398037D01*
X141966512Y-101377943D01*
X142034412Y-101361469D01*
X142100439Y-101384321D01*
X142133507Y-101419357D01*
X142269108Y-101635164D01*
X142458221Y-101872304D01*
X142672696Y-102086779D01*
X142909836Y-102275892D01*
X143166659Y-102437265D01*
X143439935Y-102568868D01*
X143654951Y-102644105D01*
X143726216Y-102669042D01*
X143726228Y-102669046D01*
X144021937Y-102736540D01*
X144021946Y-102736541D01*
X144021951Y-102736542D01*
X144222874Y-102759180D01*
X144323337Y-102770499D01*
X144323340Y-102770500D01*
X144323343Y-102770500D01*
X144626660Y-102770500D01*
X144626661Y-102770499D01*
X144780694Y-102753144D01*
X144928048Y-102736542D01*
X144928051Y-102736541D01*
X144928063Y-102736540D01*
X145223772Y-102669046D01*
X145510065Y-102568868D01*
X145783341Y-102437265D01*
X146040164Y-102275892D01*
X146277304Y-102086779D01*
X146491779Y-101872304D01*
X146680892Y-101635164D01*
X146842265Y-101378341D01*
X146973868Y-101105065D01*
X147074046Y-100818772D01*
X147141540Y-100523063D01*
X147145638Y-100486697D01*
X147175499Y-100221663D01*
X147175500Y-100221659D01*
X147175500Y-99918340D01*
X147175499Y-99918336D01*
X147174914Y-99913147D01*
X147164180Y-99817874D01*
X147141542Y-99616951D01*
X147141541Y-99616946D01*
X147141540Y-99616937D01*
X147074046Y-99321228D01*
X146973868Y-99034935D01*
X146842265Y-98761659D01*
X146680892Y-98504836D01*
X146491779Y-98267696D01*
X146277304Y-98053221D01*
X146276940Y-98052931D01*
X146126647Y-97933076D01*
X146040164Y-97864108D01*
X145783341Y-97702735D01*
X145783338Y-97702733D01*
X145510068Y-97571133D01*
X145223783Y-97470957D01*
X145223771Y-97470953D01*
X144995556Y-97418864D01*
X144928063Y-97403460D01*
X144928060Y-97403459D01*
X144928048Y-97403457D01*
X144626663Y-97369500D01*
X144626657Y-97369500D01*
X144323343Y-97369500D01*
X144323336Y-97369500D01*
X144021951Y-97403457D01*
X144021937Y-97403460D01*
X143726228Y-97470953D01*
X143726216Y-97470957D01*
X143439931Y-97571133D01*
X143166661Y-97702733D01*
X142909837Y-97864107D01*
X142672701Y-98053216D01*
X142587706Y-98138211D01*
X142526382Y-98171695D01*
X142456691Y-98166711D01*
X142412344Y-98138210D01*
X142366860Y-98092726D01*
X142366851Y-98092718D01*
X142158803Y-97933075D01*
X141931700Y-97801958D01*
X141931690Y-97801953D01*
X141689428Y-97701605D01*
X141689421Y-97701603D01*
X141689419Y-97701602D01*
X141436116Y-97633730D01*
X141378339Y-97626123D01*
X141176127Y-97599500D01*
X141176120Y-97599500D01*
X140913880Y-97599500D01*
X140913872Y-97599500D01*
X140682772Y-97629926D01*
X140653884Y-97633730D01*
X140482433Y-97679670D01*
X140400581Y-97701602D01*
X140400571Y-97701605D01*
X140158309Y-97801953D01*
X140158299Y-97801958D01*
X139931197Y-97933075D01*
X139850486Y-97995007D01*
X139785317Y-98020201D01*
X139716872Y-98006162D01*
X139699514Y-97995007D01*
X139618802Y-97933075D01*
X139391700Y-97801958D01*
X139391690Y-97801953D01*
X139149428Y-97701605D01*
X139149421Y-97701603D01*
X139149419Y-97701602D01*
X138896116Y-97633730D01*
X138838339Y-97626123D01*
X138636127Y-97599500D01*
X138636120Y-97599500D01*
X138373880Y-97599500D01*
X138373872Y-97599500D01*
X138142772Y-97629926D01*
X138113884Y-97633730D01*
X137942433Y-97679670D01*
X137860581Y-97701602D01*
X137860571Y-97701605D01*
X137618309Y-97801953D01*
X137618299Y-97801958D01*
X137391197Y-97933075D01*
X137310486Y-97995007D01*
X137245317Y-98020201D01*
X137176872Y-98006162D01*
X137159514Y-97995007D01*
X137078802Y-97933075D01*
X136851700Y-97801958D01*
X136851690Y-97801953D01*
X136609428Y-97701605D01*
X136609421Y-97701603D01*
X136609419Y-97701602D01*
X136356116Y-97633730D01*
X136298339Y-97626123D01*
X136096127Y-97599500D01*
X136096120Y-97599500D01*
X135833880Y-97599500D01*
X135833872Y-97599500D01*
X135602772Y-97629926D01*
X135573884Y-97633730D01*
X135402433Y-97679670D01*
X135320581Y-97701602D01*
X135320571Y-97701605D01*
X135078309Y-97801953D01*
X135078299Y-97801958D01*
X134851197Y-97933075D01*
X134770486Y-97995007D01*
X134705317Y-98020201D01*
X134636872Y-98006162D01*
X134619514Y-97995007D01*
X134538802Y-97933075D01*
X134311700Y-97801958D01*
X134311690Y-97801953D01*
X134069428Y-97701605D01*
X134069421Y-97701603D01*
X134069419Y-97701602D01*
X133816116Y-97633730D01*
X133758339Y-97626123D01*
X133556127Y-97599500D01*
X133556120Y-97599500D01*
X133293880Y-97599500D01*
X133293872Y-97599500D01*
X133062772Y-97629926D01*
X133033884Y-97633730D01*
X132862433Y-97679670D01*
X132780581Y-97701602D01*
X132780571Y-97701605D01*
X132538309Y-97801953D01*
X132538299Y-97801958D01*
X132311197Y-97933075D01*
X132230486Y-97995007D01*
X132165317Y-98020201D01*
X132096872Y-98006162D01*
X132079514Y-97995007D01*
X131998802Y-97933075D01*
X131771700Y-97801958D01*
X131771690Y-97801953D01*
X131529428Y-97701605D01*
X131529421Y-97701603D01*
X131529419Y-97701602D01*
X131276116Y-97633730D01*
X131218339Y-97626123D01*
X131016127Y-97599500D01*
X131016120Y-97599500D01*
X130753880Y-97599500D01*
X130753872Y-97599500D01*
X130522772Y-97629926D01*
X130493884Y-97633730D01*
X130322433Y-97679670D01*
X130240581Y-97701602D01*
X130240571Y-97701605D01*
X129998309Y-97801953D01*
X129998299Y-97801958D01*
X129771197Y-97933075D01*
X129690486Y-97995007D01*
X129625317Y-98020201D01*
X129556872Y-98006162D01*
X129539514Y-97995007D01*
X129458802Y-97933075D01*
X129231700Y-97801958D01*
X129231690Y-97801953D01*
X128989428Y-97701605D01*
X128989421Y-97701603D01*
X128989419Y-97701602D01*
X128736116Y-97633730D01*
X128678339Y-97626123D01*
X128476127Y-97599500D01*
X128476120Y-97599500D01*
X128213880Y-97599500D01*
X128213872Y-97599500D01*
X127982772Y-97629926D01*
X127953884Y-97633730D01*
X127782433Y-97679670D01*
X127700581Y-97701602D01*
X127700571Y-97701605D01*
X127458309Y-97801953D01*
X127458299Y-97801958D01*
X127231197Y-97933075D01*
X127150486Y-97995007D01*
X127085317Y-98020201D01*
X127016872Y-98006162D01*
X126999514Y-97995007D01*
X126918802Y-97933075D01*
X126691700Y-97801958D01*
X126691690Y-97801953D01*
X126449428Y-97701605D01*
X126449421Y-97701603D01*
X126449419Y-97701602D01*
X126196116Y-97633730D01*
X126138339Y-97626123D01*
X125936127Y-97599500D01*
X125936120Y-97599500D01*
X125673880Y-97599500D01*
X125673872Y-97599500D01*
X125442772Y-97629926D01*
X125413884Y-97633730D01*
X125242433Y-97679670D01*
X125160581Y-97701602D01*
X125160571Y-97701605D01*
X124936953Y-97794231D01*
X124867483Y-97801700D01*
X124805004Y-97770425D01*
X124769352Y-97710336D01*
X124765500Y-97679670D01*
X124765500Y-91814681D01*
X124785185Y-91747642D01*
X124814013Y-91716306D01*
X124842738Y-91694265D01*
X125014265Y-91522738D01*
X125161936Y-91330289D01*
X125283224Y-91120212D01*
X125376054Y-90896100D01*
X125438838Y-90661789D01*
X125470500Y-90421288D01*
X125470500Y-90178712D01*
X125438838Y-89938211D01*
X125376054Y-89703900D01*
X125283224Y-89479788D01*
X125161936Y-89269711D01*
X125014265Y-89077262D01*
X125014260Y-89077256D01*
X124842743Y-88905739D01*
X124842736Y-88905733D01*
X124650293Y-88758067D01*
X124650292Y-88758066D01*
X124650289Y-88758064D01*
X124440212Y-88636776D01*
X124440205Y-88636773D01*
X124216104Y-88543947D01*
X123981785Y-88481161D01*
X123741289Y-88449500D01*
X123741288Y-88449500D01*
X123498712Y-88449500D01*
X123498711Y-88449500D01*
X123258214Y-88481161D01*
X123023895Y-88543947D01*
X122799794Y-88636773D01*
X122799785Y-88636777D01*
X122589706Y-88758067D01*
X122425486Y-88884077D01*
X122360317Y-88909271D01*
X122291872Y-88895232D01*
X122274514Y-88884077D01*
X122110293Y-88758067D01*
X122110292Y-88758066D01*
X122110289Y-88758064D01*
X121900212Y-88636776D01*
X121900205Y-88636773D01*
X121676104Y-88543947D01*
X121441785Y-88481161D01*
X121201289Y-88449500D01*
X121201288Y-88449500D01*
X120958712Y-88449500D01*
X120958711Y-88449500D01*
X120718214Y-88481161D01*
X120483895Y-88543947D01*
X120259794Y-88636773D01*
X120259785Y-88636777D01*
X120049706Y-88758067D01*
X119885486Y-88884077D01*
X119820317Y-88909271D01*
X119751872Y-88895232D01*
X119734514Y-88884077D01*
X119570293Y-88758067D01*
X119570292Y-88758066D01*
X119570289Y-88758064D01*
X119360212Y-88636776D01*
X119360205Y-88636773D01*
X119136104Y-88543947D01*
X118901785Y-88481161D01*
X118661289Y-88449500D01*
X118661288Y-88449500D01*
X118418712Y-88449500D01*
X118418711Y-88449500D01*
X118178214Y-88481161D01*
X117943895Y-88543947D01*
X117719794Y-88636773D01*
X117719785Y-88636777D01*
X117509706Y-88758067D01*
X117345486Y-88884077D01*
X117280317Y-88909271D01*
X117211872Y-88895232D01*
X117194514Y-88884077D01*
X117030293Y-88758067D01*
X117030292Y-88758066D01*
X117030289Y-88758064D01*
X116820212Y-88636776D01*
X116820205Y-88636773D01*
X116596104Y-88543947D01*
X116361785Y-88481161D01*
X116121289Y-88449500D01*
X116121288Y-88449500D01*
X115878712Y-88449500D01*
X115878711Y-88449500D01*
X115638214Y-88481161D01*
X115403895Y-88543947D01*
X115179794Y-88636773D01*
X115179785Y-88636777D01*
X114969706Y-88758067D01*
X114777264Y-88905732D01*
X114698099Y-88984897D01*
X114636775Y-89018381D01*
X114567084Y-89013397D01*
X114553261Y-89007083D01*
X114417379Y-88956403D01*
X114417372Y-88956401D01*
X114357844Y-88950000D01*
X113710000Y-88950000D01*
X113710000Y-89866988D01*
X113652993Y-89834075D01*
X113525826Y-89800000D01*
X113394174Y-89800000D01*
X113267007Y-89834075D01*
X113210000Y-89866988D01*
X113210000Y-88950000D01*
X112562155Y-88950000D01*
X112502627Y-88956401D01*
X112502620Y-88956403D01*
X112367913Y-89006645D01*
X112367906Y-89006649D01*
X112252812Y-89092809D01*
X112252809Y-89092812D01*
X112166649Y-89207906D01*
X112166645Y-89207913D01*
X112116403Y-89342620D01*
X112116401Y-89342627D01*
X112110000Y-89402155D01*
X112110000Y-90050000D01*
X113026988Y-90050000D01*
X112994075Y-90107007D01*
X112960000Y-90234174D01*
X112960000Y-90365826D01*
X112994075Y-90492993D01*
X113026988Y-90550000D01*
X112110000Y-90550000D01*
X112110000Y-91197844D01*
X112116401Y-91257372D01*
X112116403Y-91257379D01*
X112166645Y-91392086D01*
X112166649Y-91392093D01*
X112252809Y-91507187D01*
X112252812Y-91507190D01*
X112367906Y-91593350D01*
X112367913Y-91593354D01*
X112502620Y-91643596D01*
X112502627Y-91643598D01*
X112562155Y-91649999D01*
X112562172Y-91650000D01*
X113210000Y-91650000D01*
X113210000Y-90733012D01*
X113267007Y-90765925D01*
X113394174Y-90800000D01*
X113525826Y-90800000D01*
X113652993Y-90765925D01*
X113710000Y-90733012D01*
X113710000Y-91650000D01*
X114020500Y-91650000D01*
X114087539Y-91669685D01*
X114133294Y-91722489D01*
X114144500Y-91774000D01*
X114144500Y-97679670D01*
X114124815Y-97746709D01*
X114072011Y-97792464D01*
X114002853Y-97802408D01*
X113973047Y-97794231D01*
X113749428Y-97701605D01*
X113749421Y-97701603D01*
X113749419Y-97701602D01*
X113496116Y-97633730D01*
X113438339Y-97626123D01*
X113236127Y-97599500D01*
X113236120Y-97599500D01*
X112973880Y-97599500D01*
X112973872Y-97599500D01*
X112742772Y-97629926D01*
X112713884Y-97633730D01*
X112542433Y-97679670D01*
X112460581Y-97701602D01*
X112460571Y-97701605D01*
X112218309Y-97801953D01*
X112218299Y-97801958D01*
X111991197Y-97933075D01*
X111910486Y-97995007D01*
X111845317Y-98020201D01*
X111776872Y-98006162D01*
X111759514Y-97995007D01*
X111678802Y-97933075D01*
X111451700Y-97801958D01*
X111451690Y-97801953D01*
X111209428Y-97701605D01*
X111209421Y-97701603D01*
X111209419Y-97701602D01*
X110956116Y-97633730D01*
X110898339Y-97626123D01*
X110696127Y-97599500D01*
X110696120Y-97599500D01*
X110433880Y-97599500D01*
X110433872Y-97599500D01*
X110202772Y-97629926D01*
X110173884Y-97633730D01*
X110002433Y-97679670D01*
X109920581Y-97701602D01*
X109920571Y-97701605D01*
X109678309Y-97801953D01*
X109678299Y-97801958D01*
X109451196Y-97933075D01*
X109243148Y-98092718D01*
X109057726Y-98278140D01*
X109057716Y-98278151D01*
X109023819Y-98322325D01*
X108967391Y-98363527D01*
X108897644Y-98367680D01*
X108852560Y-98347155D01*
X108811174Y-98317087D01*
X108600802Y-98209897D01*
X108376247Y-98136934D01*
X108376248Y-98136934D01*
X108143052Y-98100000D01*
X107906948Y-98100000D01*
X107673752Y-98136934D01*
X107449197Y-98209897D01*
X107238830Y-98317084D01*
X107197437Y-98347157D01*
X107131630Y-98370635D01*
X107063577Y-98354808D01*
X107026178Y-98322323D01*
X106992283Y-98278150D01*
X106992277Y-98278143D01*
X106806860Y-98092726D01*
X106806851Y-98092718D01*
X106598803Y-97933075D01*
X106371700Y-97801958D01*
X106371690Y-97801953D01*
X106129428Y-97701605D01*
X106129421Y-97701603D01*
X106129419Y-97701602D01*
X105876116Y-97633730D01*
X105818339Y-97626123D01*
X105616127Y-97599500D01*
X105616120Y-97599500D01*
X105353880Y-97599500D01*
X105353872Y-97599500D01*
X105122772Y-97629926D01*
X105093884Y-97633730D01*
X104922433Y-97679670D01*
X104840581Y-97701602D01*
X104840571Y-97701605D01*
X104598309Y-97801953D01*
X104598299Y-97801958D01*
X104371196Y-97933075D01*
X104163148Y-98092718D01*
X103977718Y-98278148D01*
X103818075Y-98486196D01*
X103686958Y-98713299D01*
X103686953Y-98713309D01*
X103586605Y-98955571D01*
X103586602Y-98955581D01*
X103523282Y-99191898D01*
X103518730Y-99208885D01*
X103484500Y-99468872D01*
X100157745Y-99468872D01*
X100124046Y-99321228D01*
X100023868Y-99034935D01*
X99892265Y-98761659D01*
X99730892Y-98504836D01*
X99541779Y-98267696D01*
X99327304Y-98053221D01*
X99326940Y-98052931D01*
X99176647Y-97933076D01*
X99090164Y-97864108D01*
X98833341Y-97702735D01*
X98833338Y-97702733D01*
X98560068Y-97571133D01*
X98273783Y-97470957D01*
X98273771Y-97470953D01*
X98045556Y-97418864D01*
X97978063Y-97403460D01*
X97978060Y-97403459D01*
X97978048Y-97403457D01*
X97676663Y-97369500D01*
X97676657Y-97369500D01*
X97373343Y-97369500D01*
X97373336Y-97369500D01*
X97071951Y-97403457D01*
X97071937Y-97403460D01*
X96776228Y-97470953D01*
X96776216Y-97470957D01*
X96489931Y-97571133D01*
X96216661Y-97702733D01*
X95959837Y-97864107D01*
X95722696Y-98053220D01*
X95508220Y-98267696D01*
X95319107Y-98504837D01*
X95157733Y-98761661D01*
X95026133Y-99034931D01*
X94925957Y-99321216D01*
X94925953Y-99321228D01*
X94858460Y-99616937D01*
X94858457Y-99616951D01*
X94824500Y-99918336D01*
X94500500Y-99918336D01*
X94500500Y-84624500D01*
X94520185Y-84557461D01*
X94572989Y-84511706D01*
X94624500Y-84500500D01*
X155375500Y-84500500D01*
X155442539Y-84520185D01*
G37*
%TD.AperFunction*%
%TD*%
%TA.AperFunction,NonConductor*%
G36*
X108986419Y-126245189D02*
G01*
X109023821Y-126277676D01*
X109057716Y-126321849D01*
X109057722Y-126321856D01*
X109243140Y-126507274D01*
X109243148Y-126507281D01*
X109451196Y-126666924D01*
X109678299Y-126798041D01*
X109678309Y-126798046D01*
X109920571Y-126898394D01*
X109920581Y-126898398D01*
X110173884Y-126966270D01*
X110433880Y-127000500D01*
X110433887Y-127000500D01*
X110696113Y-127000500D01*
X110696120Y-127000500D01*
X110956116Y-126966270D01*
X111209419Y-126898398D01*
X111390765Y-126823282D01*
X111451690Y-126798046D01*
X111451691Y-126798045D01*
X111451697Y-126798043D01*
X111678803Y-126666924D01*
X111759514Y-126604991D01*
X111824681Y-126579797D01*
X111893126Y-126593835D01*
X111910481Y-126604987D01*
X111991197Y-126666924D01*
X112090832Y-126724448D01*
X112218299Y-126798041D01*
X112218309Y-126798046D01*
X112460571Y-126898394D01*
X112460581Y-126898398D01*
X112713884Y-126966270D01*
X112973880Y-127000500D01*
X112973887Y-127000500D01*
X113236113Y-127000500D01*
X113236120Y-127000500D01*
X113496116Y-126966270D01*
X113749419Y-126898398D01*
X113930765Y-126823282D01*
X113991690Y-126798046D01*
X113991691Y-126798045D01*
X113991697Y-126798043D01*
X114218803Y-126666924D01*
X114299514Y-126604991D01*
X114364681Y-126579797D01*
X114433126Y-126593835D01*
X114450481Y-126604987D01*
X114531197Y-126666924D01*
X114630832Y-126724448D01*
X114758299Y-126798041D01*
X114758309Y-126798046D01*
X115000571Y-126898394D01*
X115000581Y-126898398D01*
X115253884Y-126966270D01*
X115513880Y-127000500D01*
X115513887Y-127000500D01*
X115776113Y-127000500D01*
X115776120Y-127000500D01*
X116036116Y-126966270D01*
X116289419Y-126898398D01*
X116470765Y-126823282D01*
X116531690Y-126798046D01*
X116531691Y-126798045D01*
X116531697Y-126798043D01*
X116758803Y-126666924D01*
X116839514Y-126604991D01*
X116865489Y-126594948D01*
X116890086Y-126581896D01*
X116897623Y-126582525D01*
X116904681Y-126579797D01*
X116931960Y-126585392D01*
X116959713Y-126587709D01*
X116969180Y-126593025D01*
X116973126Y-126593835D01*
X116990478Y-126604985D01*
X117032497Y-126637228D01*
X117073697Y-126693653D01*
X117077852Y-126763399D01*
X117044689Y-126823282D01*
X111485458Y-132382513D01*
X111424135Y-132415998D01*
X111413965Y-132417771D01*
X111388216Y-132421161D01*
X111388211Y-132421162D01*
X111153892Y-132483948D01*
X111070952Y-132518303D01*
X111001483Y-132525772D01*
X110939004Y-132494497D01*
X110903352Y-132434407D01*
X110899500Y-132403742D01*
X110899500Y-130968060D01*
X110862553Y-130734789D01*
X110828689Y-130630570D01*
X110789568Y-130510166D01*
X110789566Y-130510163D01*
X110789566Y-130510161D01*
X110682342Y-130299724D01*
X110674249Y-130288585D01*
X110543517Y-130108648D01*
X110376510Y-129941641D01*
X107252809Y-126817940D01*
X107237355Y-126789638D01*
X107220637Y-126762058D01*
X107220713Y-126759160D01*
X107219324Y-126756617D01*
X107221624Y-126724448D01*
X107222471Y-126692212D01*
X107224150Y-126689122D01*
X107224308Y-126686925D01*
X107237971Y-126660504D01*
X107240990Y-126656065D01*
X107324698Y-126553407D01*
X107370493Y-126465736D01*
X107374544Y-126459783D01*
X107396193Y-126441996D01*
X107415640Y-126421820D01*
X107422825Y-126420117D01*
X107428531Y-126415430D01*
X107456362Y-126412171D01*
X107483628Y-126405712D01*
X107494423Y-126407716D01*
X107497927Y-126407306D01*
X107501425Y-126409015D01*
X107515382Y-126411607D01*
X107673754Y-126463065D01*
X107906948Y-126500000D01*
X108143052Y-126500000D01*
X108376247Y-126463065D01*
X108600802Y-126390102D01*
X108811172Y-126282914D01*
X108852558Y-126252845D01*
X108918365Y-126229364D01*
X108986419Y-126245189D01*
G37*
%TD.AperFunction*%
%TA.AperFunction,NonConductor*%
G36*
X126763834Y-127679920D02*
G01*
X126819767Y-127721792D01*
X126844184Y-127787256D01*
X126844500Y-127796102D01*
X126844500Y-129629007D01*
X126824815Y-129696046D01*
X126808181Y-129716688D01*
X124360753Y-132164115D01*
X124299430Y-132197600D01*
X124229738Y-132192616D01*
X124173805Y-132150744D01*
X124152181Y-132104027D01*
X124099046Y-131871228D01*
X124099042Y-131871216D01*
X124062870Y-131767844D01*
X123998868Y-131584935D01*
X123867265Y-131311659D01*
X123705892Y-131054836D01*
X123516779Y-130817696D01*
X123302304Y-130603221D01*
X123289764Y-130593221D01*
X123185617Y-130510166D01*
X123065164Y-130414108D01*
X122808341Y-130252735D01*
X122808338Y-130252733D01*
X122535068Y-130121133D01*
X122248783Y-130020957D01*
X122248771Y-130020953D01*
X122020556Y-129968864D01*
X121953063Y-129953460D01*
X121953060Y-129953459D01*
X121953048Y-129953457D01*
X121651663Y-129919500D01*
X121651657Y-129919500D01*
X121348343Y-129919500D01*
X121348336Y-129919500D01*
X121046951Y-129953457D01*
X121046937Y-129953460D01*
X120751228Y-130020953D01*
X120751216Y-130020957D01*
X120464931Y-130121133D01*
X120191661Y-130252733D01*
X119934837Y-130414107D01*
X119697696Y-130603220D01*
X119483220Y-130817696D01*
X119294107Y-131054837D01*
X119132733Y-131311661D01*
X119001133Y-131584931D01*
X118900957Y-131871216D01*
X118900953Y-131871228D01*
X118833460Y-132166937D01*
X118833457Y-132166951D01*
X118799500Y-132468336D01*
X118799500Y-132771663D01*
X118833457Y-133073048D01*
X118833460Y-133073062D01*
X118900953Y-133368771D01*
X118900957Y-133368783D01*
X119001133Y-133655068D01*
X119132733Y-133928338D01*
X119132735Y-133928341D01*
X119294108Y-134185164D01*
X119483221Y-134422304D01*
X119697696Y-134636779D01*
X119934836Y-134825892D01*
X120175746Y-134977266D01*
X120191661Y-134987266D01*
X120309013Y-135043780D01*
X120360872Y-135090602D01*
X120379185Y-135158029D01*
X120358137Y-135224653D01*
X120304411Y-135269322D01*
X120255211Y-135279500D01*
X113501392Y-135279500D01*
X113434353Y-135259815D01*
X113388598Y-135207011D01*
X113378654Y-135137853D01*
X113394005Y-135093500D01*
X113395678Y-135090602D01*
X113413224Y-135060212D01*
X113506054Y-134836100D01*
X113568838Y-134601789D01*
X113572228Y-134576035D01*
X113600493Y-134512139D01*
X113607474Y-134504551D01*
X119074208Y-129037819D01*
X119135531Y-129004334D01*
X119161889Y-129001500D01*
X124836310Y-129001500D01*
X125069581Y-128964553D01*
X125294205Y-128891568D01*
X125504647Y-128784343D01*
X125695723Y-128645517D01*
X126632819Y-127708421D01*
X126694142Y-127674936D01*
X126763834Y-127679920D01*
G37*
%TD.AperFunction*%
%TA.AperFunction,NonConductor*%
G36*
X134711961Y-126585392D02*
G01*
X134739714Y-126587710D01*
X134749179Y-126593025D01*
X134753126Y-126593835D01*
X134770481Y-126604987D01*
X134851197Y-126666924D01*
X134950832Y-126724448D01*
X135078299Y-126798041D01*
X135078309Y-126798046D01*
X135320571Y-126898394D01*
X135320581Y-126898398D01*
X135573884Y-126966270D01*
X135833880Y-127000500D01*
X135833887Y-127000500D01*
X136096113Y-127000500D01*
X136096120Y-127000500D01*
X136356116Y-126966270D01*
X136609419Y-126898398D01*
X136833047Y-126805767D01*
X136902516Y-126798299D01*
X136964996Y-126829574D01*
X137000648Y-126889663D01*
X137004500Y-126920329D01*
X137004500Y-129056199D01*
X137041446Y-129289470D01*
X137114433Y-129514098D01*
X137221657Y-129724536D01*
X137244157Y-129755504D01*
X137267637Y-129821310D01*
X137251812Y-129889364D01*
X137201707Y-129938059D01*
X137171432Y-129949281D01*
X136901228Y-130010953D01*
X136901216Y-130010957D01*
X136614931Y-130111133D01*
X136341661Y-130242733D01*
X136084837Y-130404107D01*
X135847696Y-130593220D01*
X135633220Y-130807696D01*
X135444107Y-131044837D01*
X135282733Y-131301661D01*
X135151133Y-131574931D01*
X135050957Y-131861216D01*
X135050953Y-131861228D01*
X134983460Y-132156937D01*
X134983457Y-132156951D01*
X134949500Y-132458336D01*
X134949500Y-132761663D01*
X134983457Y-133063048D01*
X134983459Y-133063060D01*
X134983460Y-133063063D01*
X134998864Y-133130556D01*
X135050953Y-133358771D01*
X135050957Y-133358783D01*
X135151133Y-133645068D01*
X135282733Y-133918338D01*
X135289018Y-133928341D01*
X135444108Y-134175164D01*
X135633221Y-134412304D01*
X135847696Y-134626779D01*
X136084836Y-134815892D01*
X136341659Y-134977265D01*
X136614935Y-135108868D01*
X136829951Y-135184105D01*
X136901216Y-135209042D01*
X136901228Y-135209046D01*
X137196937Y-135276540D01*
X137196946Y-135276541D01*
X137196951Y-135276542D01*
X137396898Y-135299070D01*
X137498337Y-135310499D01*
X137498340Y-135310500D01*
X137498343Y-135310500D01*
X137801660Y-135310500D01*
X137801661Y-135310499D01*
X137959478Y-135292718D01*
X138103048Y-135276542D01*
X138103051Y-135276541D01*
X138103063Y-135276540D01*
X138398772Y-135209046D01*
X138685065Y-135108868D01*
X138958341Y-134977265D01*
X139215164Y-134815892D01*
X139298187Y-134749682D01*
X139362874Y-134723275D01*
X139431569Y-134736030D01*
X139482463Y-134783901D01*
X139499500Y-134846630D01*
X139499500Y-140618098D01*
X139515423Y-140718635D01*
X139506468Y-140787928D01*
X139461472Y-140841380D01*
X139394720Y-140862019D01*
X139360858Y-140857807D01*
X139159414Y-140803830D01*
X139159413Y-140803829D01*
X139159410Y-140803829D01*
X138913853Y-140771501D01*
X138913850Y-140771500D01*
X138913844Y-140771500D01*
X138666156Y-140771500D01*
X138666150Y-140771500D01*
X138666146Y-140771501D01*
X138420589Y-140803829D01*
X138181332Y-140867938D01*
X137952508Y-140962720D01*
X137952499Y-140962724D01*
X137738004Y-141086563D01*
X137737989Y-141086573D01*
X137595486Y-141195920D01*
X137530317Y-141221114D01*
X137461872Y-141207076D01*
X137444514Y-141195920D01*
X137302010Y-141086573D01*
X137302008Y-141086572D01*
X137302002Y-141086567D01*
X137248593Y-141055731D01*
X137087500Y-140962724D01*
X137087491Y-140962720D01*
X136858667Y-140867938D01*
X136681627Y-140820500D01*
X136619414Y-140803830D01*
X136619413Y-140803829D01*
X136619410Y-140803829D01*
X136373853Y-140771501D01*
X136373850Y-140771500D01*
X136373844Y-140771500D01*
X136126156Y-140771500D01*
X136126150Y-140771500D01*
X136126146Y-140771501D01*
X135880589Y-140803829D01*
X135641332Y-140867938D01*
X135412508Y-140962720D01*
X135412499Y-140962724D01*
X135198004Y-141086563D01*
X135197989Y-141086573D01*
X135055486Y-141195920D01*
X134990317Y-141221114D01*
X134921872Y-141207076D01*
X134904514Y-141195920D01*
X134762010Y-141086573D01*
X134762008Y-141086572D01*
X134762002Y-141086567D01*
X134708593Y-141055731D01*
X134547500Y-140962724D01*
X134547491Y-140962720D01*
X134318667Y-140867938D01*
X134141627Y-140820500D01*
X134079414Y-140803830D01*
X134079413Y-140803829D01*
X134079410Y-140803829D01*
X133833853Y-140771501D01*
X133833850Y-140771500D01*
X133833844Y-140771500D01*
X133586156Y-140771500D01*
X133586150Y-140771500D01*
X133586146Y-140771501D01*
X133340589Y-140803829D01*
X133101332Y-140867938D01*
X132872508Y-140962720D01*
X132872499Y-140962724D01*
X132658004Y-141086563D01*
X132657989Y-141086573D01*
X132515486Y-141195920D01*
X132489512Y-141205961D01*
X132464915Y-141219015D01*
X132457374Y-141218385D01*
X132450317Y-141221114D01*
X132423035Y-141215518D01*
X132395287Y-141213202D01*
X132385821Y-141207885D01*
X132381872Y-141207076D01*
X132364514Y-141195920D01*
X132255354Y-141112159D01*
X132214151Y-141055731D01*
X132209996Y-140985985D01*
X132220356Y-140957487D01*
X132275566Y-140849132D01*
X132275566Y-140849131D01*
X132275568Y-140849128D01*
X132348553Y-140624504D01*
X132362500Y-140536447D01*
X132385500Y-140391233D01*
X132385500Y-126920329D01*
X132405185Y-126853290D01*
X132457989Y-126807535D01*
X132527147Y-126797591D01*
X132556952Y-126805767D01*
X132638867Y-126839698D01*
X132763000Y-126891116D01*
X132780581Y-126898398D01*
X133033884Y-126966270D01*
X133293880Y-127000500D01*
X133293887Y-127000500D01*
X133556113Y-127000500D01*
X133556120Y-127000500D01*
X133816116Y-126966270D01*
X134069419Y-126898398D01*
X134250765Y-126823282D01*
X134311690Y-126798046D01*
X134311691Y-126798045D01*
X134311697Y-126798043D01*
X134538803Y-126666924D01*
X134619514Y-126604991D01*
X134645487Y-126594949D01*
X134670087Y-126581895D01*
X134677625Y-126582524D01*
X134684681Y-126579797D01*
X134711961Y-126585392D01*
G37*
%TD.AperFunction*%
%TA.AperFunction,NonConductor*%
G36*
X140884703Y-142507176D02*
G01*
X140891181Y-142513208D01*
X140963181Y-142585208D01*
X140996666Y-142646531D01*
X140999500Y-142672889D01*
X140999500Y-145827111D01*
X140979815Y-145894150D01*
X140963181Y-145914792D01*
X140414792Y-146463181D01*
X140353469Y-146496666D01*
X140327111Y-146499500D01*
X139342448Y-146499500D01*
X139275409Y-146479815D01*
X139229654Y-146427011D01*
X139219710Y-146357853D01*
X139248735Y-146294297D01*
X139307513Y-146256523D01*
X139310316Y-146255735D01*
X139398663Y-146232063D01*
X139627498Y-146137277D01*
X139842002Y-146013433D01*
X140038507Y-145862649D01*
X140213649Y-145687507D01*
X140364433Y-145491002D01*
X140488277Y-145276498D01*
X140583063Y-145047663D01*
X140647170Y-144808414D01*
X140679500Y-144562844D01*
X140679500Y-142600889D01*
X140699185Y-142533850D01*
X140751989Y-142488095D01*
X140821147Y-142478151D01*
X140884703Y-142507176D01*
G37*
%TD.AperFunction*%
%TA.AperFunction,NonConductor*%
G36*
X137578127Y-145892923D02*
G01*
X137595477Y-145904072D01*
X137737998Y-146013433D01*
X137952502Y-146137277D01*
X138181337Y-146232063D01*
X138269647Y-146255725D01*
X138329306Y-146292090D01*
X138359835Y-146354937D01*
X138351540Y-146424313D01*
X138307055Y-146478191D01*
X138240503Y-146499465D01*
X138237552Y-146499500D01*
X136802448Y-146499500D01*
X136735409Y-146479815D01*
X136689654Y-146427011D01*
X136679710Y-146357853D01*
X136708735Y-146294297D01*
X136767513Y-146256523D01*
X136770316Y-146255735D01*
X136858663Y-146232063D01*
X137087498Y-146137277D01*
X137302002Y-146013433D01*
X137444516Y-145904077D01*
X137509682Y-145878885D01*
X137578127Y-145892923D01*
G37*
%TD.AperFunction*%
%TA.AperFunction,NonConductor*%
G36*
X134996962Y-145884480D02*
G01*
X135024713Y-145886797D01*
X135034180Y-145892113D01*
X135038127Y-145892923D01*
X135055477Y-145904072D01*
X135197998Y-146013433D01*
X135412502Y-146137277D01*
X135641337Y-146232063D01*
X135729647Y-146255725D01*
X135789306Y-146292090D01*
X135819835Y-146354937D01*
X135811540Y-146424313D01*
X135767055Y-146478191D01*
X135700503Y-146499465D01*
X135697552Y-146499500D01*
X134262448Y-146499500D01*
X134195409Y-146479815D01*
X134149654Y-146427011D01*
X134139710Y-146357853D01*
X134168735Y-146294297D01*
X134227513Y-146256523D01*
X134230316Y-146255735D01*
X134318663Y-146232063D01*
X134547498Y-146137277D01*
X134762002Y-146013433D01*
X134904516Y-145904077D01*
X134930491Y-145894035D01*
X134955086Y-145880984D01*
X134962624Y-145881613D01*
X134969682Y-145878885D01*
X134996962Y-145884480D01*
G37*
%TD.AperFunction*%
%TA.AperFunction,NonConductor*%
G36*
X132498127Y-145892923D02*
G01*
X132515477Y-145904072D01*
X132657998Y-146013433D01*
X132872502Y-146137277D01*
X133101337Y-146232063D01*
X133189647Y-146255725D01*
X133249306Y-146292090D01*
X133279835Y-146354937D01*
X133271540Y-146424313D01*
X133227055Y-146478191D01*
X133160503Y-146499465D01*
X133157552Y-146499500D01*
X132172889Y-146499500D01*
X132143448Y-146490855D01*
X132113462Y-146484332D01*
X132108446Y-146480577D01*
X132105850Y-146479815D01*
X132085208Y-146463181D01*
X131963222Y-146341195D01*
X131929737Y-146279872D01*
X131934721Y-146210180D01*
X131976593Y-146154247D01*
X132003460Y-146138949D01*
X132007498Y-146137277D01*
X132222002Y-146013433D01*
X132364516Y-145904077D01*
X132429682Y-145878885D01*
X132498127Y-145892923D01*
G37*
%TD.AperFunction*%
M02*
